%
M48
M72
T01C0.0120
T02C0.0150
T03C0.0400
T04C0.1300
%
T01
X6350Y3350
X6850Y4350
X6350Y6350
X6850Y7350
X6850Y7850
X6350Y8350
X5850Y8100
X6350Y9350
X6850Y9350
X7350Y8850
X8500Y10100
X8850Y9100
X10185Y8850
X10550Y8500
X11350Y8350
X11350Y8850
X11350Y9850
X11350Y10350
X10850Y10350
X10550Y11250
X10550Y11850
X10550Y13000
X10850Y13350
X10185Y13350
X10550Y14500
X11350Y14350
X11900Y15224
X12850Y14350
X13350Y14350
X13350Y12850
X12850Y12850
X12850Y11850
X12850Y11350
X13350Y11350
X13650Y10350
X14050Y10350
X14400Y10350
X14350Y9700
X14850Y9500
X15850Y10350
X15850Y11350
X16350Y11350
X16950Y10350
X17911Y11250
X18850Y11350
X18450Y10350
X19850Y10350
X20850Y11350
X21850Y11350
X22850Y10850
X21850Y9850
X21850Y8350
X22850Y7350
X21850Y6850
X21850Y5350
X20850Y5350
X19850Y4350
X19350Y3850
X18350Y4350
X17850Y3850
X16850Y4350
X15850Y4350
X15200Y4350
X14350Y4350
X13850Y4350
X12850Y4350
X12350Y4350
X11911Y5100
X11350Y4350
X10850Y4350
X11350Y3600
X10600Y5100
X10550Y5850
X10550Y7000
X10850Y7350
X9350Y7100
X8850Y7350
X8350Y7350
X9350Y5350
X9350Y4350
X12850Y5350
X13350Y5350
X13350Y6850
X12850Y6850
X12850Y8350
X13350Y8350
X12850Y10350
X12450Y10350
X11900Y11100
X9350Y11600
X9100Y11250
X7850Y12350
X8350Y13350
X9350Y14600
X8850Y15350
X11350Y17300
X11350Y18050
X10850Y18050
X10600Y18800
X10550Y19550
X10550Y20700
X10850Y21050
X11350Y22050
X11350Y22550
X10550Y22200
X10185Y22550
X8850Y22800
X8500Y23800
X7350Y24300
X6850Y23050
X6350Y23050
X6350Y22050
X5850Y21800
X6850Y21550
X6850Y21050
X6350Y20050
X6850Y18050
X6350Y17050
X9350Y18050
X9350Y19050
X9350Y20800
X8850Y21050
X8350Y21050
X7350Y22550
X5350Y24050
X7850Y26050
X8350Y27050
X9350Y28300
X8850Y29050
X10550Y28200
X11350Y28050
X11900Y28924
X12850Y28050
X13350Y28050
X13350Y26550
X12850Y26550
X12850Y25550
X12850Y25050
X13350Y25050
X13650Y24050
X14050Y24050
X14400Y24050
X14350Y23400
X14850Y23200
X15850Y24050
X15850Y25050
X16350Y25050
X16950Y24050
X17911Y24950
X18850Y25050
X18450Y24050
X19850Y24050
X20850Y25050
X21850Y25050
X22850Y24550
X21850Y23550
X21850Y22050
X22850Y21050
X21850Y20550
X21850Y19050
X20850Y19050
X19850Y18050
X19350Y17550
X18350Y18050
X17850Y17550
X16850Y18050
X15850Y18050
X15200Y18050
X14350Y18050
X13850Y18050
X12850Y18050
X12350Y18050
X11911Y18800
X12850Y19050
X13350Y19050
X13350Y20550
X12850Y20550
X12850Y22050
X13350Y22050
X12850Y24050
X12450Y24050
X11900Y24800
X11350Y24050
X11350Y23550
X10850Y24050
X10550Y24950
X10550Y25550
X10550Y26700
X10850Y27050
X10185Y27050
X9350Y25300
X9100Y24950
X6350Y27150
X6350Y30750
X6850Y31750
X6350Y33750
X6850Y34750
X6850Y35250
X6350Y35750
X5850Y35500
X6350Y36750
X6850Y36750
X7350Y36250
X8850Y36500
X8500Y37500
X7350Y38000
X7850Y39750
X8350Y40750
X9350Y42000
X8850Y42750
X10550Y41900
X11350Y41750
X11900Y42624
X12850Y41750
X13350Y41750
X13350Y40250
X12850Y40250
X12850Y39250
X12850Y38750
X13350Y38750
X13650Y37750
X14050Y37750
X14400Y37750
X14350Y37100
X14850Y36900
X15850Y37750
X15850Y38750
X16350Y38750
X16950Y37750
X17911Y38650
X18850Y38750
X18450Y37750
X19850Y37750
X20850Y38750
X21850Y38750
X22850Y38250
X21850Y37250
X21850Y35750
X22850Y34750
X21850Y34250
X21850Y32750
X20850Y32750
X19850Y31750
X19350Y31250
X18350Y31750
X17850Y31250
X16850Y31750
X15850Y31750
X15200Y31750
X14350Y31750
X13850Y31750
X12850Y31750
X12350Y31750
X11911Y32500
X11350Y31750
X10850Y31750
X11350Y31000
X10600Y32500
X10550Y33250
X9350Y32750
X9350Y31750
X9350Y34500
X8850Y34750
X8350Y34750
X10185Y36250
X10550Y35900
X11350Y35750
X11350Y36250
X11350Y37250
X11350Y37750
X10850Y37750
X10550Y38650
X10550Y39250
X10550Y40400
X10850Y40750
X10185Y40750
X9350Y39000
X9100Y38650
X11900Y38500
X12450Y37750
X12850Y37750
X12850Y35750
X13350Y35750
X13350Y34250
X12850Y34250
X12850Y32750
X13350Y32750
X14850Y32750
X15850Y32750
X16350Y32750
X16350Y34250
X15850Y34250
X15850Y35750
X17350Y35750
X17350Y36250
X18850Y35750
X19350Y35750
X19350Y34250
X18850Y34250
X18850Y32750
X19350Y32750
X17850Y32500
X15100Y30750
X14350Y30500
X15850Y28050
X15850Y26550
X16350Y26550
X17350Y28050
X17850Y28924
X18850Y28050
X19350Y28050
X19850Y27050
X18850Y26550
X19850Y25550
X21850Y26550
X22850Y27050
X21850Y28050
X20850Y31250
X21850Y31750
X22850Y31750
X27050Y30750
X27550Y31750
X27050Y33750
X27550Y34750
X27550Y35250
X27050Y35750
X26550Y35500
X27050Y36750
X27550Y36750
X28050Y36250
X29550Y36500
X29200Y37500
X28050Y38000
X28550Y39750
X29050Y40750
X30050Y42000
X29550Y42750
X31250Y41900
X32050Y41750
X32600Y42624
X33550Y41750
X34050Y41750
X34050Y40250
X33550Y40250
X33550Y39250
X33550Y38750
X34050Y38750
X34350Y37750
X34750Y37750
X35100Y37750
X35050Y37100
X35550Y36900
X36550Y37750
X36550Y38750
X37050Y38750
X37650Y37750
X38611Y38650
X39550Y38750
X39150Y37750
X40550Y37750
X41550Y38750
X40550Y39250
X39550Y40250
X40550Y40750
X40050Y41750
X39550Y41750
X38550Y42624
X38050Y41750
X36550Y41750
X36550Y40250
X37050Y40250
X35550Y38750
X33550Y37750
X33150Y37750
X32600Y38500
X32050Y37750
X32050Y37250
X31550Y37750
X31250Y38650
X31250Y39250
X31250Y40400
X31550Y40750
X30885Y40750
X30050Y39000
X29800Y38650
X30885Y36250
X31250Y35900
X32050Y35750
X32050Y36250
X31550Y34750
X31250Y34400
X31250Y33250
X31300Y32500
X31550Y31750
X32050Y31750
X32050Y31000
X33050Y31750
X33550Y31750
X33550Y32750
X34050Y32750
X34550Y31750
X35050Y31750
X35900Y31750
X36550Y31750
X36550Y32750
X37050Y32750
X37550Y31750
X38550Y31250
X39050Y31750
X38550Y32500
X39550Y32750
X40050Y32750
X40550Y31750
X40050Y31250
X41550Y31250
X42550Y31750
X42550Y32750
X41550Y32750
X42550Y34250
X43550Y34750
X42550Y35750
X42550Y37250
X43550Y38250
X42550Y38750
X42550Y40250
X43550Y40750
X42550Y41750
X38050Y36250
X38050Y35750
X36550Y35750
X36550Y34250
X37050Y34250
X35550Y32750
X34050Y34250
X33550Y34250
X33550Y35750
X34050Y35750
X32611Y32500
X35050Y30500
X35800Y30750
X36550Y28050
X36550Y26550
X37050Y26550
X37050Y25050
X36550Y25050
X36550Y24050
X37650Y24050
X38611Y24950
X39550Y25050
X39150Y24050
X40550Y24050
X41550Y25050
X40550Y25550
X39550Y26550
X40550Y27050
X40050Y28050
X39550Y28050
X38550Y28924
X38050Y28050
X35550Y25050
X35100Y24050
X34750Y24050
X34350Y24050
X33550Y24050
X33150Y24050
X32600Y24800
X32050Y24050
X32050Y23550
X31550Y24050
X31250Y24950
X31250Y25550
X31250Y26700
X31550Y27050
X30885Y27050
X31250Y28200
X32050Y28050
X32600Y28924
X33550Y28050
X34050Y28050
X34050Y26550
X33550Y26550
X33550Y25550
X33550Y25050
X34050Y25050
X35050Y23400
X35550Y23200
X36550Y22050
X36550Y20550
X37050Y20550
X37050Y19050
X36550Y19050
X36550Y18050
X35900Y18050
X35050Y18050
X34550Y18050
X33550Y18050
X33050Y18050
X32611Y18800
X32050Y18050
X31550Y18050
X32050Y17300
X31300Y18800
X31250Y19550
X31250Y20700
X31550Y21050
X32050Y22050
X32050Y22550
X31250Y22200
X30885Y22550
X29550Y22800
X29200Y23800
X28050Y24300
X27550Y23050
X27050Y23050
X27050Y22050
X26550Y21800
X27550Y21550
X27550Y21050
X27050Y20050
X27550Y18050
X27050Y17050
X29550Y15350
X30050Y14600
X30885Y13350
X31250Y13000
X31550Y13350
X32050Y14350
X31250Y14500
X32600Y15224
X33550Y14350
X34050Y14350
X34050Y12850
X33550Y12850
X33550Y11850
X33550Y11350
X34050Y11350
X34350Y10350
X34750Y10350
X35100Y10350
X35050Y9700
X35550Y9500
X36550Y10350
X36550Y11350
X37050Y11350
X37650Y10350
X38611Y11250
X39550Y11350
X39150Y10350
X40550Y10350
X41550Y11350
X40550Y11850
X39550Y12850
X40550Y13350
X40050Y14350
X39550Y14350
X38550Y15224
X38050Y14350
X36550Y14350
X36550Y12850
X37050Y12850
X35550Y11350
X33550Y10350
X33150Y10350
X32600Y11100
X32050Y10350
X32050Y9850
X31550Y10350
X31250Y11250
X31250Y11850
X30050Y11600
X29800Y11250
X28550Y12350
X29050Y13350
X27050Y13450
X28050Y10600
X29200Y10100
X29550Y9100
X28050Y8850
X27550Y9350
X27050Y9350
X27050Y8350
X26550Y8100
X27550Y7850
X27550Y7350
X27050Y6350
X27550Y4350
X27050Y3350
X30050Y4350
X30050Y5350
X31300Y5100
X31250Y5850
X31250Y7000
X31550Y7350
X32050Y8350
X32050Y8850
X31250Y8500
X30885Y8850
X30050Y7100
X29550Y7350
X29050Y7350
X31550Y4350
X32050Y4350
X32050Y3600
X33050Y4350
X33550Y4350
X33550Y5350
X34050Y5350
X34550Y4350
X35050Y4350
X35900Y4350
X36550Y4350
X36550Y5350
X37050Y5350
X37550Y4350
X38550Y3850
X39050Y4350
X38550Y5100
X39550Y5350
X40050Y5350
X40550Y4350
X40050Y3850
X41550Y3850
X42550Y4350
X42550Y5350
X41550Y5350
X42550Y6850
X43550Y7350
X42550Y8350
X42550Y9850
X43550Y10850
X42550Y11350
X42550Y12850
X43550Y13350
X42550Y14350
X41550Y17550
X40550Y18050
X40050Y17550
X39050Y18050
X38550Y17550
X37550Y18050
X38550Y18800
X39550Y19050
X40050Y19050
X41550Y19050
X42550Y19050
X42550Y18050
X43550Y18050
X42550Y20550
X43550Y21050
X42550Y22050
X42550Y23550
X43550Y24550
X42550Y25050
X42550Y26550
X43550Y27050
X42550Y28050
X43550Y31750
X40050Y34250
X39550Y34250
X39550Y35750
X40050Y35750
X30050Y34500
X29550Y34750
X29050Y34750
X30050Y32750
X30050Y31750
X29550Y29050
X30050Y28300
X29050Y27050
X28550Y26050
X29800Y24950
X30050Y25300
X27050Y27150
X26050Y24050
X28050Y22550
X29050Y21050
X29550Y21050
X30050Y20800
X30050Y19050
X30050Y18050
X33550Y19050
X34050Y19050
X35550Y19050
X34050Y20550
X33550Y20550
X33550Y22050
X34050Y22050
X38050Y22050
X38050Y22550
X39550Y22050
X40050Y22050
X40050Y20550
X39550Y20550
X35800Y17050
X35050Y16800
X38050Y8850
X38050Y8350
X36550Y8350
X36550Y6850
X37050Y6850
X35550Y5350
X34050Y6850
X33550Y6850
X33550Y8350
X34050Y8350
X32611Y5100
X35050Y3100
X35800Y3350
X39550Y6850
X40050Y6850
X40050Y8350
X39550Y8350
X43550Y4350
X26050Y10350
X22850Y13350
X21850Y12850
X21850Y14350
X19850Y13350
X19350Y14350
X18850Y14350
X17850Y15224
X17350Y14350
X15850Y14350
X15850Y12850
X16350Y12850
X14850Y11350
X17350Y8850
X17350Y8350
X15850Y8350
X15850Y6850
X16350Y6850
X16350Y5350
X15850Y5350
X14850Y5350
X15100Y3350
X14350Y3100
X17850Y5100
X18850Y5350
X19350Y5350
X19350Y6850
X18850Y6850
X18850Y8350
X19350Y8350
X19850Y11850
X18850Y12850
X15100Y17050
X14350Y16800
X14850Y19050
X15850Y19050
X16350Y19050
X16350Y20550
X15850Y20550
X15850Y22050
X17350Y22050
X17350Y22550
X18850Y22050
X19350Y22050
X19350Y20550
X18850Y20550
X18850Y19050
X19350Y19050
X17850Y18800
X20850Y17550
X21850Y18050
X22850Y18050
X14850Y25050
X10550Y34400
X10850Y34750
X14850Y38750
X15850Y40250
X16350Y40250
X15850Y41750
X17350Y41750
X17850Y42624
X18850Y41750
X19350Y41750
X19850Y40750
X18850Y40250
X19850Y39250
X21850Y40250
X22850Y40750
X21850Y41750
X26050Y37750
X27050Y40850
X6350Y40850
X5350Y37750
X6350Y13450
X7350Y10600
X5350Y10350
X20850Y3850
X21850Y4350
X22850Y4350
T02
X27050Y4350
X27050Y18050
X27050Y31750
X6350Y31750
X6350Y18050
X6350Y4350
T03
X3800Y5850
X3900Y6850
X3800Y7850
X3900Y8850
X3800Y9850
X3900Y10850
X3800Y11850
X3900Y12850
X3800Y19550
X3900Y20550
X3800Y21550
X3900Y22550
X3800Y23550
X3900Y24550
X3800Y25550
X3900Y26550
X3800Y33250
X3900Y34250
X3800Y35250
X3900Y36250
X3800Y37250
X3900Y38250
X3800Y39250
X3900Y40250
X24500Y39250
X24600Y38250
X24500Y37250
X24600Y36250
X24500Y35250
X24600Y34250
X24500Y33250
X24600Y26550
X24500Y25550
X24600Y24550
X24500Y23550
X24600Y22550
X24500Y21550
X24600Y20550
X24500Y19550
X24600Y12850
X24500Y11850
X24600Y10850
X24500Y9850
X24600Y8850
X24500Y7850
X24600Y6850
X24500Y5850
X24600Y40250
T04
X3850Y3850
X3850Y15350
X3850Y17550
X3850Y29050
X3850Y31250
X3850Y42750
X24550Y42750
X24550Y31250
X24550Y29050
X24550Y17550
X24550Y15350
X24550Y3850
M30
