G75*
%MOIN*%
%OFA0B0*%
%FSLAX25Y25*%
%IPPOS*%
%LPD*%
%AMOC8*
5,1,8,0,0,1.08239X$1,22.5*
%
%ADD10C,0.08200*%
%ADD11R,0.06300X0.02170*%
%ADD12C,0.13800*%
%ADD13C,0.03300*%
%ADD14C,0.04737*%
%ADD15C,0.05000*%
%ADD16C,0.06706*%
D10*
X0038000Y0058500D03*
X0039000Y0068500D03*
X0038000Y0078500D03*
X0039000Y0088500D03*
X0038000Y0098500D03*
X0039000Y0108500D03*
X0038000Y0118500D03*
X0039000Y0128500D03*
X0038000Y0195500D03*
X0039000Y0205500D03*
X0038000Y0215500D03*
X0039000Y0225500D03*
X0038000Y0235500D03*
X0039000Y0245500D03*
X0038000Y0255500D03*
X0039000Y0265500D03*
X0038000Y0332500D03*
X0039000Y0342500D03*
X0038000Y0352500D03*
X0039000Y0362500D03*
X0038000Y0372500D03*
X0039000Y0382500D03*
X0038000Y0392500D03*
X0039000Y0402500D03*
X0245000Y0392500D03*
X0246000Y0382500D03*
X0245000Y0372500D03*
X0246000Y0362500D03*
X0245000Y0352500D03*
X0246000Y0342500D03*
X0245000Y0332500D03*
X0246000Y0265500D03*
X0245000Y0255500D03*
X0246000Y0245500D03*
X0245000Y0235500D03*
X0246000Y0225500D03*
X0245000Y0215500D03*
X0246000Y0205500D03*
X0245000Y0195500D03*
X0246000Y0128500D03*
X0245000Y0118500D03*
X0246000Y0108500D03*
X0245000Y0098500D03*
X0246000Y0088500D03*
X0245000Y0078500D03*
X0246000Y0068500D03*
X0245000Y0058500D03*
X0246000Y0402500D03*
D11*
X0207894Y0403661D03*
X0207894Y0401102D03*
X0207894Y0398543D03*
X0207894Y0395984D03*
X0207894Y0393425D03*
X0207894Y0406220D03*
X0207894Y0408780D03*
X0207894Y0411339D03*
X0207894Y0413898D03*
X0207894Y0416457D03*
X0207894Y0419016D03*
X0207894Y0421575D03*
X0179106Y0421575D03*
X0179106Y0419016D03*
X0179106Y0416457D03*
X0179106Y0413898D03*
X0179106Y0411339D03*
X0179106Y0408780D03*
X0179106Y0406220D03*
X0179106Y0403661D03*
X0179106Y0401102D03*
X0179106Y0398543D03*
X0179106Y0395984D03*
X0179106Y0393425D03*
X0147894Y0393425D03*
X0147894Y0395984D03*
X0147894Y0398543D03*
X0147894Y0401102D03*
X0147894Y0403661D03*
X0147894Y0406220D03*
X0147894Y0408780D03*
X0147894Y0411339D03*
X0147894Y0413898D03*
X0147894Y0416457D03*
X0147894Y0419016D03*
X0147894Y0421575D03*
X0119106Y0421575D03*
X0119106Y0419016D03*
X0119106Y0416457D03*
X0119106Y0413898D03*
X0119106Y0411339D03*
X0119106Y0408780D03*
X0119106Y0406220D03*
X0119106Y0403661D03*
X0119106Y0401102D03*
X0119106Y0398543D03*
X0119106Y0395984D03*
X0119106Y0393425D03*
X0119106Y0361575D03*
X0119106Y0359016D03*
X0119106Y0356457D03*
X0119106Y0353898D03*
X0119106Y0351339D03*
X0119106Y0348780D03*
X0119106Y0346220D03*
X0119106Y0343661D03*
X0119106Y0341102D03*
X0119106Y0338543D03*
X0119106Y0335984D03*
X0119106Y0333425D03*
X0147894Y0333425D03*
X0147894Y0335984D03*
X0147894Y0338543D03*
X0147894Y0341102D03*
X0147894Y0343661D03*
X0147894Y0346220D03*
X0147894Y0348780D03*
X0147894Y0351339D03*
X0147894Y0353898D03*
X0147894Y0356457D03*
X0147894Y0359016D03*
X0147894Y0361575D03*
X0179106Y0361575D03*
X0179106Y0359016D03*
X0179106Y0356457D03*
X0179106Y0353898D03*
X0179106Y0351339D03*
X0179106Y0348780D03*
X0179106Y0346220D03*
X0179106Y0343661D03*
X0179106Y0341102D03*
X0179106Y0338543D03*
X0179106Y0335984D03*
X0179106Y0333425D03*
X0207894Y0333425D03*
X0207894Y0335984D03*
X0207894Y0338543D03*
X0207894Y0341102D03*
X0207894Y0343661D03*
X0207894Y0346220D03*
X0207894Y0348780D03*
X0207894Y0351339D03*
X0207894Y0353898D03*
X0207894Y0356457D03*
X0207894Y0359016D03*
X0207894Y0361575D03*
X0207894Y0284575D03*
X0207894Y0282016D03*
X0207894Y0279457D03*
X0207894Y0276898D03*
X0207894Y0274339D03*
X0207894Y0271780D03*
X0207894Y0269220D03*
X0207894Y0266661D03*
X0207894Y0264102D03*
X0207894Y0261543D03*
X0207894Y0258984D03*
X0207894Y0256425D03*
X0179106Y0256425D03*
X0179106Y0258984D03*
X0179106Y0261543D03*
X0179106Y0264102D03*
X0179106Y0266661D03*
X0179106Y0269220D03*
X0179106Y0271780D03*
X0179106Y0274339D03*
X0179106Y0276898D03*
X0179106Y0279457D03*
X0179106Y0282016D03*
X0179106Y0284575D03*
X0147894Y0284575D03*
X0147894Y0282016D03*
X0147894Y0279457D03*
X0147894Y0276898D03*
X0147894Y0274339D03*
X0147894Y0271780D03*
X0147894Y0269220D03*
X0147894Y0266661D03*
X0147894Y0264102D03*
X0147894Y0261543D03*
X0147894Y0258984D03*
X0147894Y0256425D03*
X0119106Y0256425D03*
X0119106Y0258984D03*
X0119106Y0261543D03*
X0119106Y0264102D03*
X0119106Y0266661D03*
X0119106Y0269220D03*
X0119106Y0271780D03*
X0119106Y0274339D03*
X0119106Y0276898D03*
X0119106Y0279457D03*
X0119106Y0282016D03*
X0119106Y0284575D03*
X0119106Y0224575D03*
X0119106Y0222016D03*
X0119106Y0219457D03*
X0119106Y0216898D03*
X0119106Y0214339D03*
X0119106Y0211780D03*
X0119106Y0209220D03*
X0119106Y0206661D03*
X0119106Y0204102D03*
X0119106Y0201543D03*
X0119106Y0198984D03*
X0119106Y0196425D03*
X0147894Y0196425D03*
X0147894Y0198984D03*
X0147894Y0201543D03*
X0147894Y0204102D03*
X0147894Y0206661D03*
X0147894Y0209220D03*
X0147894Y0211780D03*
X0147894Y0214339D03*
X0147894Y0216898D03*
X0147894Y0219457D03*
X0147894Y0222016D03*
X0147894Y0224575D03*
X0179106Y0224575D03*
X0179106Y0222016D03*
X0179106Y0219457D03*
X0179106Y0216898D03*
X0179106Y0214339D03*
X0179106Y0211780D03*
X0179106Y0209220D03*
X0179106Y0206661D03*
X0179106Y0204102D03*
X0179106Y0201543D03*
X0179106Y0198984D03*
X0179106Y0196425D03*
X0207894Y0196425D03*
X0207894Y0198984D03*
X0207894Y0201543D03*
X0207894Y0204102D03*
X0207894Y0206661D03*
X0207894Y0209220D03*
X0207894Y0211780D03*
X0207894Y0214339D03*
X0207894Y0216898D03*
X0207894Y0219457D03*
X0207894Y0222016D03*
X0207894Y0224575D03*
X0207894Y0147575D03*
X0207894Y0145016D03*
X0207894Y0142457D03*
X0207894Y0139898D03*
X0207894Y0137339D03*
X0207894Y0134780D03*
X0207894Y0132220D03*
X0207894Y0129661D03*
X0207894Y0127102D03*
X0207894Y0124543D03*
X0207894Y0121984D03*
X0207894Y0119425D03*
X0179106Y0119425D03*
X0179106Y0121984D03*
X0179106Y0124543D03*
X0179106Y0127102D03*
X0179106Y0129661D03*
X0179106Y0132220D03*
X0179106Y0134780D03*
X0179106Y0137339D03*
X0179106Y0139898D03*
X0179106Y0142457D03*
X0179106Y0145016D03*
X0179106Y0147575D03*
X0147894Y0147575D03*
X0147894Y0145016D03*
X0147894Y0142457D03*
X0147894Y0139898D03*
X0147894Y0137339D03*
X0147894Y0134780D03*
X0147894Y0132220D03*
X0147894Y0129661D03*
X0147894Y0127102D03*
X0147894Y0124543D03*
X0147894Y0121984D03*
X0147894Y0119425D03*
X0119106Y0119425D03*
X0119106Y0121984D03*
X0119106Y0124543D03*
X0119106Y0127102D03*
X0119106Y0129661D03*
X0119106Y0132220D03*
X0119106Y0134780D03*
X0119106Y0137339D03*
X0119106Y0139898D03*
X0119106Y0142457D03*
X0119106Y0145016D03*
X0119106Y0147575D03*
X0119106Y0087575D03*
X0119106Y0085016D03*
X0119106Y0082457D03*
X0119106Y0079898D03*
X0119106Y0077339D03*
X0119106Y0074780D03*
X0119106Y0072220D03*
X0119106Y0069661D03*
X0119106Y0067102D03*
X0119106Y0064543D03*
X0119106Y0061984D03*
X0119106Y0059425D03*
X0147894Y0059425D03*
X0147894Y0061984D03*
X0147894Y0064543D03*
X0147894Y0067102D03*
X0147894Y0069661D03*
X0147894Y0072220D03*
X0147894Y0074780D03*
X0147894Y0077339D03*
X0147894Y0079898D03*
X0147894Y0082457D03*
X0147894Y0085016D03*
X0147894Y0087575D03*
X0179106Y0087575D03*
X0179106Y0085016D03*
X0179106Y0082457D03*
X0179106Y0079898D03*
X0179106Y0077339D03*
X0179106Y0074780D03*
X0179106Y0072220D03*
X0179106Y0069661D03*
X0179106Y0067102D03*
X0179106Y0064543D03*
X0179106Y0061984D03*
X0179106Y0059425D03*
X0207894Y0059425D03*
X0207894Y0061984D03*
X0207894Y0064543D03*
X0207894Y0067102D03*
X0207894Y0069661D03*
X0207894Y0072220D03*
X0207894Y0074780D03*
X0207894Y0077339D03*
X0207894Y0079898D03*
X0207894Y0082457D03*
X0207894Y0085016D03*
X0207894Y0087575D03*
X0326106Y0087575D03*
X0326106Y0085016D03*
X0326106Y0082457D03*
X0326106Y0079898D03*
X0326106Y0077339D03*
X0326106Y0074780D03*
X0326106Y0072220D03*
X0326106Y0069661D03*
X0326106Y0067102D03*
X0326106Y0064543D03*
X0326106Y0061984D03*
X0326106Y0059425D03*
X0354894Y0059425D03*
X0354894Y0061984D03*
X0354894Y0064543D03*
X0354894Y0067102D03*
X0354894Y0069661D03*
X0354894Y0072220D03*
X0354894Y0074780D03*
X0354894Y0077339D03*
X0354894Y0079898D03*
X0354894Y0082457D03*
X0354894Y0085016D03*
X0354894Y0087575D03*
X0386106Y0087575D03*
X0386106Y0085016D03*
X0386106Y0082457D03*
X0386106Y0079898D03*
X0386106Y0077339D03*
X0386106Y0074780D03*
X0386106Y0072220D03*
X0386106Y0069661D03*
X0386106Y0067102D03*
X0386106Y0064543D03*
X0386106Y0061984D03*
X0386106Y0059425D03*
X0414894Y0059425D03*
X0414894Y0061984D03*
X0414894Y0064543D03*
X0414894Y0067102D03*
X0414894Y0069661D03*
X0414894Y0072220D03*
X0414894Y0074780D03*
X0414894Y0077339D03*
X0414894Y0079898D03*
X0414894Y0082457D03*
X0414894Y0085016D03*
X0414894Y0087575D03*
X0414894Y0119425D03*
X0414894Y0121984D03*
X0414894Y0124543D03*
X0414894Y0127102D03*
X0414894Y0129661D03*
X0414894Y0132220D03*
X0414894Y0134780D03*
X0414894Y0137339D03*
X0414894Y0139898D03*
X0414894Y0142457D03*
X0414894Y0145016D03*
X0414894Y0147575D03*
X0386106Y0147575D03*
X0386106Y0145016D03*
X0386106Y0142457D03*
X0386106Y0139898D03*
X0386106Y0137339D03*
X0386106Y0134780D03*
X0386106Y0132220D03*
X0386106Y0129661D03*
X0386106Y0127102D03*
X0386106Y0124543D03*
X0386106Y0121984D03*
X0386106Y0119425D03*
X0354894Y0119425D03*
X0354894Y0121984D03*
X0354894Y0124543D03*
X0354894Y0127102D03*
X0354894Y0129661D03*
X0354894Y0132220D03*
X0354894Y0134780D03*
X0354894Y0137339D03*
X0354894Y0139898D03*
X0354894Y0142457D03*
X0354894Y0145016D03*
X0354894Y0147575D03*
X0326106Y0147575D03*
X0326106Y0145016D03*
X0326106Y0142457D03*
X0326106Y0139898D03*
X0326106Y0137339D03*
X0326106Y0134780D03*
X0326106Y0132220D03*
X0326106Y0129661D03*
X0326106Y0127102D03*
X0326106Y0124543D03*
X0326106Y0121984D03*
X0326106Y0119425D03*
X0326106Y0196425D03*
X0326106Y0198984D03*
X0326106Y0201543D03*
X0326106Y0204102D03*
X0326106Y0206661D03*
X0326106Y0209220D03*
X0326106Y0211780D03*
X0326106Y0214339D03*
X0326106Y0216898D03*
X0326106Y0219457D03*
X0326106Y0222016D03*
X0326106Y0224575D03*
X0354894Y0224575D03*
X0354894Y0222016D03*
X0354894Y0219457D03*
X0354894Y0216898D03*
X0354894Y0214339D03*
X0354894Y0211780D03*
X0354894Y0209220D03*
X0354894Y0206661D03*
X0354894Y0204102D03*
X0354894Y0201543D03*
X0354894Y0198984D03*
X0354894Y0196425D03*
X0386106Y0196425D03*
X0386106Y0198984D03*
X0386106Y0201543D03*
X0386106Y0204102D03*
X0386106Y0206661D03*
X0386106Y0209220D03*
X0386106Y0211780D03*
X0386106Y0214339D03*
X0386106Y0216898D03*
X0386106Y0219457D03*
X0386106Y0222016D03*
X0386106Y0224575D03*
X0414894Y0224575D03*
X0414894Y0222016D03*
X0414894Y0219457D03*
X0414894Y0216898D03*
X0414894Y0214339D03*
X0414894Y0211780D03*
X0414894Y0209220D03*
X0414894Y0206661D03*
X0414894Y0204102D03*
X0414894Y0201543D03*
X0414894Y0198984D03*
X0414894Y0196425D03*
X0414894Y0256425D03*
X0414894Y0258984D03*
X0414894Y0261543D03*
X0414894Y0264102D03*
X0414894Y0266661D03*
X0414894Y0269220D03*
X0414894Y0271780D03*
X0414894Y0274339D03*
X0414894Y0276898D03*
X0414894Y0279457D03*
X0414894Y0282016D03*
X0414894Y0284575D03*
X0386106Y0284575D03*
X0386106Y0282016D03*
X0386106Y0279457D03*
X0386106Y0276898D03*
X0386106Y0274339D03*
X0386106Y0271780D03*
X0386106Y0269220D03*
X0386106Y0266661D03*
X0386106Y0264102D03*
X0386106Y0261543D03*
X0386106Y0258984D03*
X0386106Y0256425D03*
X0354894Y0256425D03*
X0354894Y0258984D03*
X0354894Y0261543D03*
X0354894Y0264102D03*
X0354894Y0266661D03*
X0354894Y0269220D03*
X0354894Y0271780D03*
X0354894Y0274339D03*
X0354894Y0276898D03*
X0354894Y0279457D03*
X0354894Y0282016D03*
X0354894Y0284575D03*
X0326106Y0284575D03*
X0326106Y0282016D03*
X0326106Y0279457D03*
X0326106Y0276898D03*
X0326106Y0274339D03*
X0326106Y0271780D03*
X0326106Y0269220D03*
X0326106Y0266661D03*
X0326106Y0264102D03*
X0326106Y0261543D03*
X0326106Y0258984D03*
X0326106Y0256425D03*
X0326106Y0333425D03*
X0326106Y0335984D03*
X0326106Y0338543D03*
X0326106Y0341102D03*
X0326106Y0343661D03*
X0326106Y0346220D03*
X0326106Y0348780D03*
X0326106Y0351339D03*
X0326106Y0353898D03*
X0326106Y0356457D03*
X0326106Y0359016D03*
X0326106Y0361575D03*
X0354894Y0361575D03*
X0354894Y0359016D03*
X0354894Y0356457D03*
X0354894Y0353898D03*
X0354894Y0351339D03*
X0354894Y0348780D03*
X0354894Y0346220D03*
X0354894Y0343661D03*
X0354894Y0341102D03*
X0354894Y0338543D03*
X0354894Y0335984D03*
X0354894Y0333425D03*
X0386106Y0333425D03*
X0386106Y0335984D03*
X0386106Y0338543D03*
X0386106Y0341102D03*
X0386106Y0343661D03*
X0386106Y0346220D03*
X0386106Y0348780D03*
X0386106Y0351339D03*
X0386106Y0353898D03*
X0386106Y0356457D03*
X0386106Y0359016D03*
X0386106Y0361575D03*
X0414894Y0361575D03*
X0414894Y0359016D03*
X0414894Y0356457D03*
X0414894Y0353898D03*
X0414894Y0351339D03*
X0414894Y0348780D03*
X0414894Y0346220D03*
X0414894Y0343661D03*
X0414894Y0341102D03*
X0414894Y0338543D03*
X0414894Y0335984D03*
X0414894Y0333425D03*
X0414894Y0393425D03*
X0414894Y0395984D03*
X0414894Y0398543D03*
X0414894Y0401102D03*
X0414894Y0403661D03*
X0414894Y0406220D03*
X0414894Y0408780D03*
X0414894Y0411339D03*
X0414894Y0413898D03*
X0414894Y0416457D03*
X0414894Y0419016D03*
X0414894Y0421575D03*
X0386106Y0421575D03*
X0386106Y0419016D03*
X0386106Y0416457D03*
X0386106Y0413898D03*
X0386106Y0411339D03*
X0386106Y0408780D03*
X0386106Y0406220D03*
X0386106Y0403661D03*
X0386106Y0401102D03*
X0386106Y0398543D03*
X0386106Y0395984D03*
X0386106Y0393425D03*
X0354894Y0393425D03*
X0354894Y0395984D03*
X0354894Y0398543D03*
X0354894Y0401102D03*
X0354894Y0403661D03*
X0354894Y0406220D03*
X0354894Y0408780D03*
X0354894Y0411339D03*
X0354894Y0413898D03*
X0354894Y0416457D03*
X0354894Y0419016D03*
X0354894Y0421575D03*
X0326106Y0421575D03*
X0326106Y0419016D03*
X0326106Y0416457D03*
X0326106Y0413898D03*
X0326106Y0411339D03*
X0326106Y0408780D03*
X0326106Y0406220D03*
X0326106Y0403661D03*
X0326106Y0401102D03*
X0326106Y0398543D03*
X0326106Y0395984D03*
X0326106Y0393425D03*
D12*
X0038500Y0038500D03*
X0038500Y0153500D03*
X0038500Y0175500D03*
X0038500Y0290500D03*
X0038500Y0312500D03*
X0038500Y0427500D03*
X0245500Y0427500D03*
X0245500Y0312500D03*
X0245500Y0290500D03*
X0245500Y0175500D03*
X0245500Y0153500D03*
X0245500Y0038500D03*
D13*
X0255500Y0038500D03*
X0228500Y0158500D03*
X0255500Y0175500D03*
X0228500Y0295500D03*
X0255500Y0312500D03*
X0228500Y0432500D03*
X0048500Y0312500D03*
X0048500Y0175500D03*
X0048500Y0038500D03*
X0435500Y0158500D03*
X0435500Y0295500D03*
X0435500Y0432500D03*
D14*
X0413500Y0445750D03*
X0055500Y0445750D03*
D15*
X0051935Y0020250D02*
X0051937Y0020369D01*
X0051943Y0020488D01*
X0051953Y0020607D01*
X0051967Y0020725D01*
X0051985Y0020843D01*
X0052006Y0020960D01*
X0052032Y0021076D01*
X0052062Y0021192D01*
X0052095Y0021306D01*
X0052132Y0021419D01*
X0052173Y0021531D01*
X0052218Y0021642D01*
X0052266Y0021751D01*
X0052318Y0021858D01*
X0052374Y0021963D01*
X0052433Y0022067D01*
X0052495Y0022168D01*
X0052561Y0022268D01*
X0052630Y0022365D01*
X0052702Y0022459D01*
X0052778Y0022552D01*
X0052856Y0022641D01*
X0052937Y0022728D01*
X0053022Y0022813D01*
X0053109Y0022894D01*
X0053198Y0022972D01*
X0053291Y0023048D01*
X0053385Y0023120D01*
X0053482Y0023189D01*
X0053582Y0023255D01*
X0053683Y0023317D01*
X0053787Y0023376D01*
X0053892Y0023432D01*
X0053999Y0023484D01*
X0054108Y0023532D01*
X0054219Y0023577D01*
X0054331Y0023618D01*
X0054444Y0023655D01*
X0054558Y0023688D01*
X0054674Y0023718D01*
X0054790Y0023744D01*
X0054907Y0023765D01*
X0055025Y0023783D01*
X0055143Y0023797D01*
X0055262Y0023807D01*
X0055381Y0023813D01*
X0055500Y0023815D01*
X0055619Y0023813D01*
X0055738Y0023807D01*
X0055857Y0023797D01*
X0055975Y0023783D01*
X0056093Y0023765D01*
X0056210Y0023744D01*
X0056326Y0023718D01*
X0056442Y0023688D01*
X0056556Y0023655D01*
X0056669Y0023618D01*
X0056781Y0023577D01*
X0056892Y0023532D01*
X0057001Y0023484D01*
X0057108Y0023432D01*
X0057213Y0023376D01*
X0057317Y0023317D01*
X0057418Y0023255D01*
X0057518Y0023189D01*
X0057615Y0023120D01*
X0057709Y0023048D01*
X0057802Y0022972D01*
X0057891Y0022894D01*
X0057978Y0022813D01*
X0058063Y0022728D01*
X0058144Y0022641D01*
X0058222Y0022552D01*
X0058298Y0022459D01*
X0058370Y0022365D01*
X0058439Y0022268D01*
X0058505Y0022168D01*
X0058567Y0022067D01*
X0058626Y0021963D01*
X0058682Y0021858D01*
X0058734Y0021751D01*
X0058782Y0021642D01*
X0058827Y0021531D01*
X0058868Y0021419D01*
X0058905Y0021306D01*
X0058938Y0021192D01*
X0058968Y0021076D01*
X0058994Y0020960D01*
X0059015Y0020843D01*
X0059033Y0020725D01*
X0059047Y0020607D01*
X0059057Y0020488D01*
X0059063Y0020369D01*
X0059065Y0020250D01*
X0059063Y0020131D01*
X0059057Y0020012D01*
X0059047Y0019893D01*
X0059033Y0019775D01*
X0059015Y0019657D01*
X0058994Y0019540D01*
X0058968Y0019424D01*
X0058938Y0019308D01*
X0058905Y0019194D01*
X0058868Y0019081D01*
X0058827Y0018969D01*
X0058782Y0018858D01*
X0058734Y0018749D01*
X0058682Y0018642D01*
X0058626Y0018537D01*
X0058567Y0018433D01*
X0058505Y0018332D01*
X0058439Y0018232D01*
X0058370Y0018135D01*
X0058298Y0018041D01*
X0058222Y0017948D01*
X0058144Y0017859D01*
X0058063Y0017772D01*
X0057978Y0017687D01*
X0057891Y0017606D01*
X0057802Y0017528D01*
X0057709Y0017452D01*
X0057615Y0017380D01*
X0057518Y0017311D01*
X0057418Y0017245D01*
X0057317Y0017183D01*
X0057213Y0017124D01*
X0057108Y0017068D01*
X0057001Y0017016D01*
X0056892Y0016968D01*
X0056781Y0016923D01*
X0056669Y0016882D01*
X0056556Y0016845D01*
X0056442Y0016812D01*
X0056326Y0016782D01*
X0056210Y0016756D01*
X0056093Y0016735D01*
X0055975Y0016717D01*
X0055857Y0016703D01*
X0055738Y0016693D01*
X0055619Y0016687D01*
X0055500Y0016685D01*
X0055381Y0016687D01*
X0055262Y0016693D01*
X0055143Y0016703D01*
X0055025Y0016717D01*
X0054907Y0016735D01*
X0054790Y0016756D01*
X0054674Y0016782D01*
X0054558Y0016812D01*
X0054444Y0016845D01*
X0054331Y0016882D01*
X0054219Y0016923D01*
X0054108Y0016968D01*
X0053999Y0017016D01*
X0053892Y0017068D01*
X0053787Y0017124D01*
X0053683Y0017183D01*
X0053582Y0017245D01*
X0053482Y0017311D01*
X0053385Y0017380D01*
X0053291Y0017452D01*
X0053198Y0017528D01*
X0053109Y0017606D01*
X0053022Y0017687D01*
X0052937Y0017772D01*
X0052856Y0017859D01*
X0052778Y0017948D01*
X0052702Y0018041D01*
X0052630Y0018135D01*
X0052561Y0018232D01*
X0052495Y0018332D01*
X0052433Y0018433D01*
X0052374Y0018537D01*
X0052318Y0018642D01*
X0052266Y0018749D01*
X0052218Y0018858D01*
X0052173Y0018969D01*
X0052132Y0019081D01*
X0052095Y0019194D01*
X0052062Y0019308D01*
X0052032Y0019424D01*
X0052006Y0019540D01*
X0051985Y0019657D01*
X0051967Y0019775D01*
X0051953Y0019893D01*
X0051943Y0020012D01*
X0051937Y0020131D01*
X0051935Y0020250D01*
D16*
X0055500Y0020250D03*
M02*
