G75*
%MOIN*%
%OFA0B0*%
%FSLAX25Y25*%
%IPPOS*%
%LPD*%
%AMOC8*
5,1,8,0,0,1.08239X$1,22.5*
%
%ADD10R,0.05500X0.01370*%
D10*
X0132962Y0059425D03*
X0132962Y0061984D03*
X0132962Y0064543D03*
X0132962Y0067102D03*
X0132962Y0069661D03*
X0132962Y0072220D03*
X0132962Y0074780D03*
X0132962Y0077339D03*
X0132962Y0079898D03*
X0132962Y0082457D03*
X0132962Y0085016D03*
X0132962Y0087575D03*
X0161749Y0087575D03*
X0161749Y0085016D03*
X0161749Y0082457D03*
X0161749Y0079898D03*
X0161749Y0077339D03*
X0161749Y0074780D03*
X0161749Y0072220D03*
X0161749Y0069661D03*
X0161749Y0067102D03*
X0161749Y0064543D03*
X0161749Y0061984D03*
X0161749Y0059425D03*
X0192962Y0059425D03*
X0192962Y0061984D03*
X0192962Y0064543D03*
X0192962Y0067102D03*
X0192962Y0069661D03*
X0192962Y0072220D03*
X0192962Y0074780D03*
X0192962Y0077339D03*
X0192962Y0079898D03*
X0192962Y0082457D03*
X0192962Y0085016D03*
X0192962Y0087575D03*
X0221749Y0087575D03*
X0221749Y0085016D03*
X0221749Y0082457D03*
X0221749Y0079898D03*
X0221749Y0077339D03*
X0221749Y0074780D03*
X0221749Y0072220D03*
X0221749Y0069661D03*
X0221749Y0067102D03*
X0221749Y0064543D03*
X0221749Y0061984D03*
X0221749Y0059425D03*
X0221749Y0119425D03*
X0221749Y0121984D03*
X0221749Y0124543D03*
X0221749Y0127102D03*
X0221749Y0129661D03*
X0221749Y0132220D03*
X0221749Y0134780D03*
X0221749Y0137339D03*
X0221749Y0139898D03*
X0221749Y0142457D03*
X0221749Y0145016D03*
X0221749Y0147575D03*
X0192962Y0147575D03*
X0192962Y0145016D03*
X0192962Y0142457D03*
X0192962Y0139898D03*
X0192962Y0137339D03*
X0192962Y0134780D03*
X0192962Y0132220D03*
X0192962Y0129661D03*
X0192962Y0127102D03*
X0192962Y0124543D03*
X0192962Y0121984D03*
X0192962Y0119425D03*
X0161749Y0119425D03*
X0161749Y0121984D03*
X0161749Y0124543D03*
X0161749Y0127102D03*
X0161749Y0129661D03*
X0161749Y0132220D03*
X0161749Y0134780D03*
X0161749Y0137339D03*
X0161749Y0139898D03*
X0161749Y0142457D03*
X0161749Y0145016D03*
X0161749Y0147575D03*
X0132962Y0147575D03*
X0132962Y0145016D03*
X0132962Y0142457D03*
X0132962Y0139898D03*
X0132962Y0137339D03*
X0132962Y0134780D03*
X0132962Y0132220D03*
X0132962Y0129661D03*
X0132962Y0127102D03*
X0132962Y0124543D03*
X0132962Y0121984D03*
X0132962Y0119425D03*
X0132962Y0196425D03*
X0132962Y0198984D03*
X0132962Y0201543D03*
X0132962Y0204102D03*
X0132962Y0206661D03*
X0132962Y0209220D03*
X0132962Y0211780D03*
X0132962Y0214339D03*
X0132962Y0216898D03*
X0132962Y0219457D03*
X0132962Y0222016D03*
X0132962Y0224575D03*
X0161749Y0224575D03*
X0161749Y0222016D03*
X0161749Y0219457D03*
X0161749Y0216898D03*
X0161749Y0214339D03*
X0161749Y0211780D03*
X0161749Y0209220D03*
X0161749Y0206661D03*
X0161749Y0204102D03*
X0161749Y0201543D03*
X0161749Y0198984D03*
X0161749Y0196425D03*
X0192962Y0196425D03*
X0192962Y0198984D03*
X0192962Y0201543D03*
X0192962Y0204102D03*
X0192962Y0206661D03*
X0192962Y0209220D03*
X0192962Y0211780D03*
X0192962Y0214339D03*
X0192962Y0216898D03*
X0192962Y0219457D03*
X0192962Y0222016D03*
X0192962Y0224575D03*
X0221749Y0224575D03*
X0221749Y0222016D03*
X0221749Y0219457D03*
X0221749Y0216898D03*
X0221749Y0214339D03*
X0221749Y0211780D03*
X0221749Y0209220D03*
X0221749Y0206661D03*
X0221749Y0204102D03*
X0221749Y0201543D03*
X0221749Y0198984D03*
X0221749Y0196425D03*
X0221749Y0256425D03*
X0221749Y0258984D03*
X0221749Y0261543D03*
X0221749Y0264102D03*
X0221749Y0266661D03*
X0221749Y0269220D03*
X0221749Y0271780D03*
X0221749Y0274339D03*
X0221749Y0276898D03*
X0221749Y0279457D03*
X0221749Y0282016D03*
X0221749Y0284575D03*
X0192962Y0284575D03*
X0192962Y0282016D03*
X0192962Y0279457D03*
X0192962Y0276898D03*
X0192962Y0274339D03*
X0192962Y0271780D03*
X0192962Y0269220D03*
X0192962Y0266661D03*
X0192962Y0264102D03*
X0192962Y0261543D03*
X0192962Y0258984D03*
X0192962Y0256425D03*
X0161749Y0256425D03*
X0161749Y0258984D03*
X0161749Y0261543D03*
X0161749Y0264102D03*
X0161749Y0266661D03*
X0161749Y0269220D03*
X0161749Y0271780D03*
X0161749Y0274339D03*
X0161749Y0276898D03*
X0161749Y0279457D03*
X0161749Y0282016D03*
X0161749Y0284575D03*
X0132962Y0284575D03*
X0132962Y0282016D03*
X0132962Y0279457D03*
X0132962Y0276898D03*
X0132962Y0274339D03*
X0132962Y0271780D03*
X0132962Y0269220D03*
X0132962Y0266661D03*
X0132962Y0264102D03*
X0132962Y0261543D03*
X0132962Y0258984D03*
X0132962Y0256425D03*
X0132962Y0333425D03*
X0132962Y0335984D03*
X0132962Y0338543D03*
X0132962Y0341102D03*
X0132962Y0343661D03*
X0132962Y0346220D03*
X0132962Y0348780D03*
X0132962Y0351339D03*
X0132962Y0353898D03*
X0132962Y0356457D03*
X0132962Y0359016D03*
X0132962Y0361575D03*
X0161749Y0361575D03*
X0161749Y0359016D03*
X0161749Y0356457D03*
X0161749Y0353898D03*
X0161749Y0351339D03*
X0161749Y0348780D03*
X0161749Y0346220D03*
X0161749Y0343661D03*
X0161749Y0341102D03*
X0161749Y0338543D03*
X0161749Y0335984D03*
X0161749Y0333425D03*
X0192962Y0333425D03*
X0192962Y0335984D03*
X0192962Y0338543D03*
X0192962Y0341102D03*
X0192962Y0343661D03*
X0192962Y0346220D03*
X0192962Y0348780D03*
X0192962Y0351339D03*
X0192962Y0353898D03*
X0192962Y0356457D03*
X0192962Y0359016D03*
X0192962Y0361575D03*
X0221749Y0361575D03*
X0221749Y0359016D03*
X0221749Y0356457D03*
X0221749Y0353898D03*
X0221749Y0351339D03*
X0221749Y0348780D03*
X0221749Y0346220D03*
X0221749Y0343661D03*
X0221749Y0341102D03*
X0221749Y0338543D03*
X0221749Y0335984D03*
X0221749Y0333425D03*
X0221749Y0393425D03*
X0221749Y0395984D03*
X0221749Y0398543D03*
X0221749Y0401102D03*
X0221749Y0403661D03*
X0221749Y0406220D03*
X0221749Y0408780D03*
X0221749Y0411339D03*
X0221749Y0413898D03*
X0221749Y0416457D03*
X0221749Y0419016D03*
X0221749Y0421575D03*
X0192962Y0421575D03*
X0192962Y0419016D03*
X0192962Y0416457D03*
X0192962Y0413898D03*
X0192962Y0411339D03*
X0192962Y0408780D03*
X0192962Y0406220D03*
X0192962Y0403661D03*
X0192962Y0401102D03*
X0192962Y0398543D03*
X0192962Y0395984D03*
X0192962Y0393425D03*
X0161749Y0393425D03*
X0161749Y0395984D03*
X0161749Y0398543D03*
X0161749Y0401102D03*
X0161749Y0403661D03*
X0161749Y0406220D03*
X0161749Y0408780D03*
X0161749Y0411339D03*
X0161749Y0413898D03*
X0161749Y0416457D03*
X0161749Y0419016D03*
X0161749Y0421575D03*
X0132962Y0421575D03*
X0132962Y0419016D03*
X0132962Y0416457D03*
X0132962Y0413898D03*
X0132962Y0411339D03*
X0132962Y0408780D03*
X0132962Y0406220D03*
X0132962Y0403661D03*
X0132962Y0401102D03*
X0132962Y0398543D03*
X0132962Y0395984D03*
X0132962Y0393425D03*
X0339962Y0393425D03*
X0339962Y0395984D03*
X0339962Y0398543D03*
X0339962Y0401102D03*
X0339962Y0403661D03*
X0339962Y0406220D03*
X0339962Y0408780D03*
X0339962Y0411339D03*
X0339962Y0413898D03*
X0339962Y0416457D03*
X0339962Y0419016D03*
X0339962Y0421575D03*
X0368749Y0421575D03*
X0368749Y0419016D03*
X0368749Y0416457D03*
X0368749Y0413898D03*
X0368749Y0411339D03*
X0368749Y0408780D03*
X0368749Y0406220D03*
X0368749Y0403661D03*
X0368749Y0401102D03*
X0368749Y0398543D03*
X0368749Y0395984D03*
X0368749Y0393425D03*
X0399962Y0393425D03*
X0399962Y0395984D03*
X0399962Y0398543D03*
X0399962Y0401102D03*
X0399962Y0403661D03*
X0399962Y0406220D03*
X0399962Y0408780D03*
X0399962Y0411339D03*
X0399962Y0413898D03*
X0399962Y0416457D03*
X0399962Y0419016D03*
X0399962Y0421575D03*
X0428749Y0421575D03*
X0428749Y0419016D03*
X0428749Y0416457D03*
X0428749Y0413898D03*
X0428749Y0411339D03*
X0428749Y0408780D03*
X0428749Y0406220D03*
X0428749Y0403661D03*
X0428749Y0401102D03*
X0428749Y0398543D03*
X0428749Y0395984D03*
X0428749Y0393425D03*
X0428749Y0361575D03*
X0428749Y0359016D03*
X0428749Y0356457D03*
X0428749Y0353898D03*
X0428749Y0351339D03*
X0428749Y0348780D03*
X0428749Y0346220D03*
X0428749Y0343661D03*
X0428749Y0341102D03*
X0428749Y0338543D03*
X0428749Y0335984D03*
X0428749Y0333425D03*
X0399962Y0333425D03*
X0399962Y0335984D03*
X0399962Y0338543D03*
X0399962Y0341102D03*
X0399962Y0343661D03*
X0399962Y0346220D03*
X0399962Y0348780D03*
X0399962Y0351339D03*
X0399962Y0353898D03*
X0399962Y0356457D03*
X0399962Y0359016D03*
X0399962Y0361575D03*
X0368749Y0361575D03*
X0368749Y0359016D03*
X0368749Y0356457D03*
X0368749Y0353898D03*
X0368749Y0351339D03*
X0368749Y0348780D03*
X0368749Y0346220D03*
X0368749Y0343661D03*
X0368749Y0341102D03*
X0368749Y0338543D03*
X0368749Y0335984D03*
X0368749Y0333425D03*
X0339962Y0333425D03*
X0339962Y0335984D03*
X0339962Y0338543D03*
X0339962Y0341102D03*
X0339962Y0343661D03*
X0339962Y0346220D03*
X0339962Y0348780D03*
X0339962Y0351339D03*
X0339962Y0353898D03*
X0339962Y0356457D03*
X0339962Y0359016D03*
X0339962Y0361575D03*
X0339962Y0284575D03*
X0339962Y0282016D03*
X0339962Y0279457D03*
X0339962Y0276898D03*
X0339962Y0274339D03*
X0339962Y0271780D03*
X0339962Y0269220D03*
X0339962Y0266661D03*
X0339962Y0264102D03*
X0339962Y0261543D03*
X0339962Y0258984D03*
X0339962Y0256425D03*
X0368749Y0256425D03*
X0368749Y0258984D03*
X0368749Y0261543D03*
X0368749Y0264102D03*
X0368749Y0266661D03*
X0368749Y0269220D03*
X0368749Y0271780D03*
X0368749Y0274339D03*
X0368749Y0276898D03*
X0368749Y0279457D03*
X0368749Y0282016D03*
X0368749Y0284575D03*
X0399962Y0284575D03*
X0399962Y0282016D03*
X0399962Y0279457D03*
X0399962Y0276898D03*
X0399962Y0274339D03*
X0399962Y0271780D03*
X0399962Y0269220D03*
X0399962Y0266661D03*
X0399962Y0264102D03*
X0399962Y0261543D03*
X0399962Y0258984D03*
X0399962Y0256425D03*
X0428749Y0256425D03*
X0428749Y0258984D03*
X0428749Y0261543D03*
X0428749Y0264102D03*
X0428749Y0266661D03*
X0428749Y0269220D03*
X0428749Y0271780D03*
X0428749Y0274339D03*
X0428749Y0276898D03*
X0428749Y0279457D03*
X0428749Y0282016D03*
X0428749Y0284575D03*
X0428749Y0224575D03*
X0428749Y0222016D03*
X0428749Y0219457D03*
X0428749Y0216898D03*
X0428749Y0214339D03*
X0428749Y0211780D03*
X0428749Y0209220D03*
X0428749Y0206661D03*
X0428749Y0204102D03*
X0428749Y0201543D03*
X0428749Y0198984D03*
X0428749Y0196425D03*
X0399962Y0196425D03*
X0399962Y0198984D03*
X0399962Y0201543D03*
X0399962Y0204102D03*
X0399962Y0206661D03*
X0399962Y0209220D03*
X0399962Y0211780D03*
X0399962Y0214339D03*
X0399962Y0216898D03*
X0399962Y0219457D03*
X0399962Y0222016D03*
X0399962Y0224575D03*
X0368749Y0224575D03*
X0368749Y0222016D03*
X0368749Y0219457D03*
X0368749Y0216898D03*
X0368749Y0214339D03*
X0368749Y0211780D03*
X0368749Y0209220D03*
X0368749Y0206661D03*
X0368749Y0204102D03*
X0368749Y0201543D03*
X0368749Y0198984D03*
X0368749Y0196425D03*
X0339962Y0196425D03*
X0339962Y0198984D03*
X0339962Y0201543D03*
X0339962Y0204102D03*
X0339962Y0206661D03*
X0339962Y0209220D03*
X0339962Y0211780D03*
X0339962Y0214339D03*
X0339962Y0216898D03*
X0339962Y0219457D03*
X0339962Y0222016D03*
X0339962Y0224575D03*
X0339962Y0147575D03*
X0339962Y0145016D03*
X0339962Y0142457D03*
X0339962Y0139898D03*
X0339962Y0137339D03*
X0339962Y0134780D03*
X0339962Y0132220D03*
X0339962Y0129661D03*
X0339962Y0127102D03*
X0339962Y0124543D03*
X0339962Y0121984D03*
X0339962Y0119425D03*
X0368749Y0119425D03*
X0368749Y0121984D03*
X0368749Y0124543D03*
X0368749Y0127102D03*
X0368749Y0129661D03*
X0368749Y0132220D03*
X0368749Y0134780D03*
X0368749Y0137339D03*
X0368749Y0139898D03*
X0368749Y0142457D03*
X0368749Y0145016D03*
X0368749Y0147575D03*
X0399962Y0147575D03*
X0399962Y0145016D03*
X0399962Y0142457D03*
X0399962Y0139898D03*
X0399962Y0137339D03*
X0399962Y0134780D03*
X0399962Y0132220D03*
X0399962Y0129661D03*
X0399962Y0127102D03*
X0399962Y0124543D03*
X0399962Y0121984D03*
X0399962Y0119425D03*
X0428749Y0119425D03*
X0428749Y0121984D03*
X0428749Y0124543D03*
X0428749Y0127102D03*
X0428749Y0129661D03*
X0428749Y0132220D03*
X0428749Y0134780D03*
X0428749Y0137339D03*
X0428749Y0139898D03*
X0428749Y0142457D03*
X0428749Y0145016D03*
X0428749Y0147575D03*
X0428749Y0087575D03*
X0428749Y0085016D03*
X0428749Y0082457D03*
X0428749Y0079898D03*
X0428749Y0077339D03*
X0428749Y0074780D03*
X0428749Y0072220D03*
X0428749Y0069661D03*
X0428749Y0067102D03*
X0428749Y0064543D03*
X0428749Y0061984D03*
X0428749Y0059425D03*
X0399962Y0059425D03*
X0399962Y0061984D03*
X0399962Y0064543D03*
X0399962Y0067102D03*
X0399962Y0069661D03*
X0399962Y0072220D03*
X0399962Y0074780D03*
X0399962Y0077339D03*
X0399962Y0079898D03*
X0399962Y0082457D03*
X0399962Y0085016D03*
X0399962Y0087575D03*
X0368749Y0087575D03*
X0368749Y0085016D03*
X0368749Y0082457D03*
X0368749Y0079898D03*
X0368749Y0077339D03*
X0368749Y0074780D03*
X0368749Y0072220D03*
X0368749Y0069661D03*
X0368749Y0067102D03*
X0368749Y0064543D03*
X0368749Y0061984D03*
X0368749Y0059425D03*
X0339962Y0059425D03*
X0339962Y0061984D03*
X0339962Y0064543D03*
X0339962Y0067102D03*
X0339962Y0069661D03*
X0339962Y0072220D03*
X0339962Y0074780D03*
X0339962Y0077339D03*
X0339962Y0079898D03*
X0339962Y0082457D03*
X0339962Y0085016D03*
X0339962Y0087575D03*
M02*
