G75*
%MOIN*%
%OFA0B0*%
%FSLAX25Y25*%
%IPPOS*%
%LPD*%
%AMOC8*
5,1,8,0,0,1.08239X$1,22.5*
%
%ADD10C,0.00700*%
%ADD11C,0.01000*%
%ADD12C,0.01100*%
%ADD13C,0.00000*%
D10*
X0028500Y0028500D02*
X0028500Y0163500D01*
X0233500Y0163500D01*
X0233500Y0028500D01*
X0028500Y0028500D01*
X0028500Y0165500D02*
X0028500Y0300500D01*
X0233500Y0300500D01*
X0233500Y0165500D01*
X0028500Y0165500D01*
X0028500Y0302500D02*
X0028500Y0437500D01*
X0233500Y0437500D01*
X0233500Y0302500D01*
X0028500Y0302500D01*
X0235500Y0302500D02*
X0235500Y0437500D01*
X0440500Y0437500D01*
X0440500Y0302500D01*
X0235500Y0302500D01*
X0235500Y0300500D02*
X0235500Y0165500D01*
X0440500Y0165500D01*
X0440500Y0300500D01*
X0235500Y0300500D01*
X0235500Y0163500D02*
X0235500Y0028500D01*
X0440500Y0028500D01*
X0440500Y0163500D01*
X0235500Y0163500D01*
D11*
X0001500Y0026500D02*
X0001500Y0001500D01*
X0467500Y0001500D01*
X0467500Y0026500D01*
X0001500Y0026500D01*
X0001500Y0028500D02*
X0001500Y0437500D01*
X0026500Y0437500D01*
X0026500Y0028500D01*
X0001500Y0028500D01*
X0003500Y0027500D02*
X0492500Y0027500D01*
X0467500Y0028500D02*
X0442500Y0028500D01*
X0442500Y0437500D01*
X0467500Y0437500D01*
X0467500Y0028500D01*
X0441500Y0003500D02*
X0441500Y0489500D01*
X0467500Y0464500D02*
X0467500Y0439500D01*
X0001500Y0439500D01*
X0001500Y0464500D01*
X0467500Y0464500D01*
X0492500Y0438500D02*
X0003500Y0438500D01*
X0027500Y0489500D02*
X0027500Y0003500D01*
X0003500Y0164500D02*
X0492500Y0164500D01*
X0492500Y0301500D02*
X0003500Y0301500D01*
X0234500Y0489500D02*
X0234500Y0003500D01*
D12*
X0501028Y0028487D02*
X0502996Y0024550D01*
X0504965Y0028487D01*
X0507473Y0027503D02*
X0511410Y0027503D01*
X0513919Y0027503D02*
X0514903Y0028487D01*
X0517856Y0028487D01*
X0516871Y0026518D02*
X0514903Y0026518D01*
X0513919Y0027503D01*
X0513919Y0024550D02*
X0516871Y0024550D01*
X0517856Y0025534D01*
X0516871Y0026518D01*
X0520364Y0025534D02*
X0521349Y0024550D01*
X0524301Y0024550D01*
X0526810Y0025534D02*
X0527794Y0024550D01*
X0529762Y0024550D01*
X0530747Y0025534D01*
X0530747Y0027503D01*
X0529762Y0028487D01*
X0527794Y0028487D01*
X0526810Y0027503D01*
X0526810Y0025534D01*
X0524301Y0028487D02*
X0521349Y0028487D01*
X0520364Y0027503D01*
X0520364Y0025534D01*
X0533255Y0024550D02*
X0533255Y0028487D01*
X0533255Y0026518D02*
X0535224Y0028487D01*
X0536208Y0028487D01*
X0538627Y0027503D02*
X0539611Y0028487D01*
X0541579Y0028487D01*
X0542563Y0027503D01*
X0542563Y0026518D01*
X0538627Y0026518D01*
X0538627Y0025534D02*
X0538627Y0027503D01*
X0538627Y0025534D02*
X0539611Y0024550D01*
X0541579Y0024550D01*
X0541579Y0161550D02*
X0539611Y0161550D01*
X0538627Y0162534D01*
X0538627Y0164503D01*
X0539611Y0165487D01*
X0541579Y0165487D01*
X0542563Y0164503D01*
X0542563Y0163518D01*
X0538627Y0163518D01*
X0536208Y0165487D02*
X0535224Y0165487D01*
X0533255Y0163518D01*
X0533255Y0161550D02*
X0533255Y0165487D01*
X0530747Y0164503D02*
X0529762Y0165487D01*
X0527794Y0165487D01*
X0526810Y0164503D01*
X0526810Y0162534D01*
X0527794Y0161550D01*
X0529762Y0161550D01*
X0530747Y0162534D01*
X0530747Y0164503D01*
X0524301Y0165487D02*
X0521349Y0165487D01*
X0520364Y0164503D01*
X0520364Y0162534D01*
X0521349Y0161550D01*
X0524301Y0161550D01*
X0517856Y0162534D02*
X0516871Y0163518D01*
X0514903Y0163518D01*
X0513919Y0164503D01*
X0514903Y0165487D01*
X0517856Y0165487D01*
X0517856Y0162534D02*
X0516871Y0161550D01*
X0513919Y0161550D01*
X0511410Y0164503D02*
X0507473Y0164503D01*
X0504965Y0165487D02*
X0502996Y0161550D01*
X0501028Y0165487D01*
X0502996Y0298550D02*
X0504965Y0302487D01*
X0507473Y0301503D02*
X0511410Y0301503D01*
X0513919Y0301503D02*
X0514903Y0302487D01*
X0517856Y0302487D01*
X0516871Y0300518D02*
X0514903Y0300518D01*
X0513919Y0301503D01*
X0513919Y0298550D02*
X0516871Y0298550D01*
X0517856Y0299534D01*
X0516871Y0300518D01*
X0520364Y0299534D02*
X0521349Y0298550D01*
X0524301Y0298550D01*
X0526810Y0299534D02*
X0527794Y0298550D01*
X0529762Y0298550D01*
X0530747Y0299534D01*
X0530747Y0301503D01*
X0529762Y0302487D01*
X0527794Y0302487D01*
X0526810Y0301503D01*
X0526810Y0299534D01*
X0524301Y0302487D02*
X0521349Y0302487D01*
X0520364Y0301503D01*
X0520364Y0299534D01*
X0533255Y0298550D02*
X0533255Y0302487D01*
X0533255Y0300518D02*
X0535224Y0302487D01*
X0536208Y0302487D01*
X0538627Y0301503D02*
X0539611Y0302487D01*
X0541579Y0302487D01*
X0542563Y0301503D01*
X0542563Y0300518D01*
X0538627Y0300518D01*
X0538627Y0299534D02*
X0538627Y0301503D01*
X0538627Y0299534D02*
X0539611Y0298550D01*
X0541579Y0298550D01*
X0502996Y0298550D02*
X0501028Y0302487D01*
X0502996Y0435550D02*
X0504965Y0439487D01*
X0507473Y0438503D02*
X0511410Y0438503D01*
X0513919Y0438503D02*
X0514903Y0439487D01*
X0517856Y0439487D01*
X0516871Y0437518D02*
X0514903Y0437518D01*
X0513919Y0438503D01*
X0513919Y0435550D02*
X0516871Y0435550D01*
X0517856Y0436534D01*
X0516871Y0437518D01*
X0520364Y0436534D02*
X0521349Y0435550D01*
X0524301Y0435550D01*
X0526810Y0436534D02*
X0527794Y0435550D01*
X0529762Y0435550D01*
X0530747Y0436534D01*
X0530747Y0438503D01*
X0529762Y0439487D01*
X0527794Y0439487D01*
X0526810Y0438503D01*
X0526810Y0436534D01*
X0524301Y0439487D02*
X0521349Y0439487D01*
X0520364Y0438503D01*
X0520364Y0436534D01*
X0533255Y0435550D02*
X0533255Y0439487D01*
X0533255Y0437518D02*
X0535224Y0439487D01*
X0536208Y0439487D01*
X0538627Y0438503D02*
X0539611Y0439487D01*
X0541579Y0439487D01*
X0542563Y0438503D01*
X0542563Y0437518D01*
X0538627Y0437518D01*
X0538627Y0436534D02*
X0538627Y0438503D01*
X0538627Y0436534D02*
X0539611Y0435550D01*
X0541579Y0435550D01*
X0502996Y0435550D02*
X0501028Y0439487D01*
X0460579Y0495550D02*
X0458611Y0495550D01*
X0457627Y0496534D01*
X0457627Y0498503D01*
X0458611Y0499487D01*
X0460579Y0499487D01*
X0461563Y0498503D01*
X0461563Y0497518D01*
X0457627Y0497518D01*
X0455208Y0499487D02*
X0454224Y0499487D01*
X0452255Y0497518D01*
X0452255Y0495550D02*
X0452255Y0499487D01*
X0449747Y0498503D02*
X0448762Y0499487D01*
X0446794Y0499487D01*
X0445810Y0498503D01*
X0445810Y0496534D01*
X0446794Y0495550D01*
X0448762Y0495550D01*
X0449747Y0496534D01*
X0449747Y0498503D01*
X0443301Y0499487D02*
X0440349Y0499487D01*
X0439364Y0498503D01*
X0439364Y0496534D01*
X0440349Y0495550D01*
X0443301Y0495550D01*
X0436856Y0496534D02*
X0435871Y0497518D01*
X0433903Y0497518D01*
X0432919Y0498503D01*
X0433903Y0499487D01*
X0436856Y0499487D01*
X0436856Y0496534D02*
X0435871Y0495550D01*
X0432919Y0495550D01*
X0430410Y0498503D02*
X0426473Y0498503D01*
X0423965Y0499487D02*
X0421996Y0495550D01*
X0420028Y0499487D01*
X0254563Y0498503D02*
X0254563Y0497518D01*
X0250627Y0497518D01*
X0250627Y0496534D02*
X0250627Y0498503D01*
X0251611Y0499487D01*
X0253579Y0499487D01*
X0254563Y0498503D01*
X0253579Y0495550D02*
X0251611Y0495550D01*
X0250627Y0496534D01*
X0248208Y0499487D02*
X0247224Y0499487D01*
X0245255Y0497518D01*
X0245255Y0495550D02*
X0245255Y0499487D01*
X0242747Y0498503D02*
X0241762Y0499487D01*
X0239794Y0499487D01*
X0238810Y0498503D01*
X0238810Y0496534D01*
X0239794Y0495550D01*
X0241762Y0495550D01*
X0242747Y0496534D01*
X0242747Y0498503D01*
X0236301Y0499487D02*
X0233349Y0499487D01*
X0232364Y0498503D01*
X0232364Y0496534D01*
X0233349Y0495550D01*
X0236301Y0495550D01*
X0229856Y0496534D02*
X0228871Y0497518D01*
X0226903Y0497518D01*
X0225919Y0498503D01*
X0226903Y0499487D01*
X0229856Y0499487D01*
X0229856Y0496534D02*
X0228871Y0495550D01*
X0225919Y0495550D01*
X0223410Y0498503D02*
X0219473Y0498503D01*
X0216965Y0499487D02*
X0214996Y0495550D01*
X0213028Y0499487D01*
X0047563Y0498503D02*
X0047563Y0497518D01*
X0043627Y0497518D01*
X0043627Y0496534D02*
X0043627Y0498503D01*
X0044611Y0499487D01*
X0046579Y0499487D01*
X0047563Y0498503D01*
X0046579Y0495550D02*
X0044611Y0495550D01*
X0043627Y0496534D01*
X0041208Y0499487D02*
X0040224Y0499487D01*
X0038255Y0497518D01*
X0038255Y0495550D02*
X0038255Y0499487D01*
X0035747Y0498503D02*
X0034762Y0499487D01*
X0032794Y0499487D01*
X0031810Y0498503D01*
X0031810Y0496534D01*
X0032794Y0495550D01*
X0034762Y0495550D01*
X0035747Y0496534D01*
X0035747Y0498503D01*
X0029301Y0499487D02*
X0026349Y0499487D01*
X0025364Y0498503D01*
X0025364Y0496534D01*
X0026349Y0495550D01*
X0029301Y0495550D01*
X0022856Y0496534D02*
X0021871Y0497518D01*
X0019903Y0497518D01*
X0018919Y0498503D01*
X0019903Y0499487D01*
X0022856Y0499487D01*
X0022856Y0496534D02*
X0021871Y0495550D01*
X0018919Y0495550D01*
X0016410Y0498503D02*
X0012473Y0498503D01*
X0009965Y0499487D02*
X0007996Y0495550D01*
X0006028Y0499487D01*
D13*
X0032000Y0427500D02*
X0032002Y0427661D01*
X0032008Y0427821D01*
X0032018Y0427982D01*
X0032032Y0428142D01*
X0032050Y0428302D01*
X0032071Y0428461D01*
X0032097Y0428620D01*
X0032127Y0428778D01*
X0032160Y0428935D01*
X0032198Y0429092D01*
X0032239Y0429247D01*
X0032284Y0429401D01*
X0032333Y0429554D01*
X0032386Y0429706D01*
X0032442Y0429857D01*
X0032503Y0430006D01*
X0032566Y0430154D01*
X0032634Y0430300D01*
X0032705Y0430444D01*
X0032779Y0430586D01*
X0032857Y0430727D01*
X0032939Y0430865D01*
X0033024Y0431002D01*
X0033112Y0431136D01*
X0033204Y0431268D01*
X0033299Y0431398D01*
X0033397Y0431526D01*
X0033498Y0431651D01*
X0033602Y0431773D01*
X0033709Y0431893D01*
X0033819Y0432010D01*
X0033932Y0432125D01*
X0034048Y0432236D01*
X0034167Y0432345D01*
X0034288Y0432450D01*
X0034412Y0432553D01*
X0034538Y0432653D01*
X0034666Y0432749D01*
X0034797Y0432842D01*
X0034931Y0432932D01*
X0035066Y0433019D01*
X0035204Y0433102D01*
X0035343Y0433182D01*
X0035485Y0433258D01*
X0035628Y0433331D01*
X0035773Y0433400D01*
X0035920Y0433466D01*
X0036068Y0433528D01*
X0036218Y0433586D01*
X0036369Y0433641D01*
X0036522Y0433692D01*
X0036676Y0433739D01*
X0036831Y0433782D01*
X0036987Y0433821D01*
X0037143Y0433857D01*
X0037301Y0433888D01*
X0037459Y0433916D01*
X0037618Y0433940D01*
X0037778Y0433960D01*
X0037938Y0433976D01*
X0038098Y0433988D01*
X0038259Y0433996D01*
X0038420Y0434000D01*
X0038580Y0434000D01*
X0038741Y0433996D01*
X0038902Y0433988D01*
X0039062Y0433976D01*
X0039222Y0433960D01*
X0039382Y0433940D01*
X0039541Y0433916D01*
X0039699Y0433888D01*
X0039857Y0433857D01*
X0040013Y0433821D01*
X0040169Y0433782D01*
X0040324Y0433739D01*
X0040478Y0433692D01*
X0040631Y0433641D01*
X0040782Y0433586D01*
X0040932Y0433528D01*
X0041080Y0433466D01*
X0041227Y0433400D01*
X0041372Y0433331D01*
X0041515Y0433258D01*
X0041657Y0433182D01*
X0041796Y0433102D01*
X0041934Y0433019D01*
X0042069Y0432932D01*
X0042203Y0432842D01*
X0042334Y0432749D01*
X0042462Y0432653D01*
X0042588Y0432553D01*
X0042712Y0432450D01*
X0042833Y0432345D01*
X0042952Y0432236D01*
X0043068Y0432125D01*
X0043181Y0432010D01*
X0043291Y0431893D01*
X0043398Y0431773D01*
X0043502Y0431651D01*
X0043603Y0431526D01*
X0043701Y0431398D01*
X0043796Y0431268D01*
X0043888Y0431136D01*
X0043976Y0431002D01*
X0044061Y0430865D01*
X0044143Y0430727D01*
X0044221Y0430586D01*
X0044295Y0430444D01*
X0044366Y0430300D01*
X0044434Y0430154D01*
X0044497Y0430006D01*
X0044558Y0429857D01*
X0044614Y0429706D01*
X0044667Y0429554D01*
X0044716Y0429401D01*
X0044761Y0429247D01*
X0044802Y0429092D01*
X0044840Y0428935D01*
X0044873Y0428778D01*
X0044903Y0428620D01*
X0044929Y0428461D01*
X0044950Y0428302D01*
X0044968Y0428142D01*
X0044982Y0427982D01*
X0044992Y0427821D01*
X0044998Y0427661D01*
X0045000Y0427500D01*
X0044998Y0427339D01*
X0044992Y0427179D01*
X0044982Y0427018D01*
X0044968Y0426858D01*
X0044950Y0426698D01*
X0044929Y0426539D01*
X0044903Y0426380D01*
X0044873Y0426222D01*
X0044840Y0426065D01*
X0044802Y0425908D01*
X0044761Y0425753D01*
X0044716Y0425599D01*
X0044667Y0425446D01*
X0044614Y0425294D01*
X0044558Y0425143D01*
X0044497Y0424994D01*
X0044434Y0424846D01*
X0044366Y0424700D01*
X0044295Y0424556D01*
X0044221Y0424414D01*
X0044143Y0424273D01*
X0044061Y0424135D01*
X0043976Y0423998D01*
X0043888Y0423864D01*
X0043796Y0423732D01*
X0043701Y0423602D01*
X0043603Y0423474D01*
X0043502Y0423349D01*
X0043398Y0423227D01*
X0043291Y0423107D01*
X0043181Y0422990D01*
X0043068Y0422875D01*
X0042952Y0422764D01*
X0042833Y0422655D01*
X0042712Y0422550D01*
X0042588Y0422447D01*
X0042462Y0422347D01*
X0042334Y0422251D01*
X0042203Y0422158D01*
X0042069Y0422068D01*
X0041934Y0421981D01*
X0041796Y0421898D01*
X0041657Y0421818D01*
X0041515Y0421742D01*
X0041372Y0421669D01*
X0041227Y0421600D01*
X0041080Y0421534D01*
X0040932Y0421472D01*
X0040782Y0421414D01*
X0040631Y0421359D01*
X0040478Y0421308D01*
X0040324Y0421261D01*
X0040169Y0421218D01*
X0040013Y0421179D01*
X0039857Y0421143D01*
X0039699Y0421112D01*
X0039541Y0421084D01*
X0039382Y0421060D01*
X0039222Y0421040D01*
X0039062Y0421024D01*
X0038902Y0421012D01*
X0038741Y0421004D01*
X0038580Y0421000D01*
X0038420Y0421000D01*
X0038259Y0421004D01*
X0038098Y0421012D01*
X0037938Y0421024D01*
X0037778Y0421040D01*
X0037618Y0421060D01*
X0037459Y0421084D01*
X0037301Y0421112D01*
X0037143Y0421143D01*
X0036987Y0421179D01*
X0036831Y0421218D01*
X0036676Y0421261D01*
X0036522Y0421308D01*
X0036369Y0421359D01*
X0036218Y0421414D01*
X0036068Y0421472D01*
X0035920Y0421534D01*
X0035773Y0421600D01*
X0035628Y0421669D01*
X0035485Y0421742D01*
X0035343Y0421818D01*
X0035204Y0421898D01*
X0035066Y0421981D01*
X0034931Y0422068D01*
X0034797Y0422158D01*
X0034666Y0422251D01*
X0034538Y0422347D01*
X0034412Y0422447D01*
X0034288Y0422550D01*
X0034167Y0422655D01*
X0034048Y0422764D01*
X0033932Y0422875D01*
X0033819Y0422990D01*
X0033709Y0423107D01*
X0033602Y0423227D01*
X0033498Y0423349D01*
X0033397Y0423474D01*
X0033299Y0423602D01*
X0033204Y0423732D01*
X0033112Y0423864D01*
X0033024Y0423998D01*
X0032939Y0424135D01*
X0032857Y0424273D01*
X0032779Y0424414D01*
X0032705Y0424556D01*
X0032634Y0424700D01*
X0032566Y0424846D01*
X0032503Y0424994D01*
X0032442Y0425143D01*
X0032386Y0425294D01*
X0032333Y0425446D01*
X0032284Y0425599D01*
X0032239Y0425753D01*
X0032198Y0425908D01*
X0032160Y0426065D01*
X0032127Y0426222D01*
X0032097Y0426380D01*
X0032071Y0426539D01*
X0032050Y0426698D01*
X0032032Y0426858D01*
X0032018Y0427018D01*
X0032008Y0427179D01*
X0032002Y0427339D01*
X0032000Y0427500D01*
X0032000Y0312500D02*
X0032002Y0312661D01*
X0032008Y0312821D01*
X0032018Y0312982D01*
X0032032Y0313142D01*
X0032050Y0313302D01*
X0032071Y0313461D01*
X0032097Y0313620D01*
X0032127Y0313778D01*
X0032160Y0313935D01*
X0032198Y0314092D01*
X0032239Y0314247D01*
X0032284Y0314401D01*
X0032333Y0314554D01*
X0032386Y0314706D01*
X0032442Y0314857D01*
X0032503Y0315006D01*
X0032566Y0315154D01*
X0032634Y0315300D01*
X0032705Y0315444D01*
X0032779Y0315586D01*
X0032857Y0315727D01*
X0032939Y0315865D01*
X0033024Y0316002D01*
X0033112Y0316136D01*
X0033204Y0316268D01*
X0033299Y0316398D01*
X0033397Y0316526D01*
X0033498Y0316651D01*
X0033602Y0316773D01*
X0033709Y0316893D01*
X0033819Y0317010D01*
X0033932Y0317125D01*
X0034048Y0317236D01*
X0034167Y0317345D01*
X0034288Y0317450D01*
X0034412Y0317553D01*
X0034538Y0317653D01*
X0034666Y0317749D01*
X0034797Y0317842D01*
X0034931Y0317932D01*
X0035066Y0318019D01*
X0035204Y0318102D01*
X0035343Y0318182D01*
X0035485Y0318258D01*
X0035628Y0318331D01*
X0035773Y0318400D01*
X0035920Y0318466D01*
X0036068Y0318528D01*
X0036218Y0318586D01*
X0036369Y0318641D01*
X0036522Y0318692D01*
X0036676Y0318739D01*
X0036831Y0318782D01*
X0036987Y0318821D01*
X0037143Y0318857D01*
X0037301Y0318888D01*
X0037459Y0318916D01*
X0037618Y0318940D01*
X0037778Y0318960D01*
X0037938Y0318976D01*
X0038098Y0318988D01*
X0038259Y0318996D01*
X0038420Y0319000D01*
X0038580Y0319000D01*
X0038741Y0318996D01*
X0038902Y0318988D01*
X0039062Y0318976D01*
X0039222Y0318960D01*
X0039382Y0318940D01*
X0039541Y0318916D01*
X0039699Y0318888D01*
X0039857Y0318857D01*
X0040013Y0318821D01*
X0040169Y0318782D01*
X0040324Y0318739D01*
X0040478Y0318692D01*
X0040631Y0318641D01*
X0040782Y0318586D01*
X0040932Y0318528D01*
X0041080Y0318466D01*
X0041227Y0318400D01*
X0041372Y0318331D01*
X0041515Y0318258D01*
X0041657Y0318182D01*
X0041796Y0318102D01*
X0041934Y0318019D01*
X0042069Y0317932D01*
X0042203Y0317842D01*
X0042334Y0317749D01*
X0042462Y0317653D01*
X0042588Y0317553D01*
X0042712Y0317450D01*
X0042833Y0317345D01*
X0042952Y0317236D01*
X0043068Y0317125D01*
X0043181Y0317010D01*
X0043291Y0316893D01*
X0043398Y0316773D01*
X0043502Y0316651D01*
X0043603Y0316526D01*
X0043701Y0316398D01*
X0043796Y0316268D01*
X0043888Y0316136D01*
X0043976Y0316002D01*
X0044061Y0315865D01*
X0044143Y0315727D01*
X0044221Y0315586D01*
X0044295Y0315444D01*
X0044366Y0315300D01*
X0044434Y0315154D01*
X0044497Y0315006D01*
X0044558Y0314857D01*
X0044614Y0314706D01*
X0044667Y0314554D01*
X0044716Y0314401D01*
X0044761Y0314247D01*
X0044802Y0314092D01*
X0044840Y0313935D01*
X0044873Y0313778D01*
X0044903Y0313620D01*
X0044929Y0313461D01*
X0044950Y0313302D01*
X0044968Y0313142D01*
X0044982Y0312982D01*
X0044992Y0312821D01*
X0044998Y0312661D01*
X0045000Y0312500D01*
X0044998Y0312339D01*
X0044992Y0312179D01*
X0044982Y0312018D01*
X0044968Y0311858D01*
X0044950Y0311698D01*
X0044929Y0311539D01*
X0044903Y0311380D01*
X0044873Y0311222D01*
X0044840Y0311065D01*
X0044802Y0310908D01*
X0044761Y0310753D01*
X0044716Y0310599D01*
X0044667Y0310446D01*
X0044614Y0310294D01*
X0044558Y0310143D01*
X0044497Y0309994D01*
X0044434Y0309846D01*
X0044366Y0309700D01*
X0044295Y0309556D01*
X0044221Y0309414D01*
X0044143Y0309273D01*
X0044061Y0309135D01*
X0043976Y0308998D01*
X0043888Y0308864D01*
X0043796Y0308732D01*
X0043701Y0308602D01*
X0043603Y0308474D01*
X0043502Y0308349D01*
X0043398Y0308227D01*
X0043291Y0308107D01*
X0043181Y0307990D01*
X0043068Y0307875D01*
X0042952Y0307764D01*
X0042833Y0307655D01*
X0042712Y0307550D01*
X0042588Y0307447D01*
X0042462Y0307347D01*
X0042334Y0307251D01*
X0042203Y0307158D01*
X0042069Y0307068D01*
X0041934Y0306981D01*
X0041796Y0306898D01*
X0041657Y0306818D01*
X0041515Y0306742D01*
X0041372Y0306669D01*
X0041227Y0306600D01*
X0041080Y0306534D01*
X0040932Y0306472D01*
X0040782Y0306414D01*
X0040631Y0306359D01*
X0040478Y0306308D01*
X0040324Y0306261D01*
X0040169Y0306218D01*
X0040013Y0306179D01*
X0039857Y0306143D01*
X0039699Y0306112D01*
X0039541Y0306084D01*
X0039382Y0306060D01*
X0039222Y0306040D01*
X0039062Y0306024D01*
X0038902Y0306012D01*
X0038741Y0306004D01*
X0038580Y0306000D01*
X0038420Y0306000D01*
X0038259Y0306004D01*
X0038098Y0306012D01*
X0037938Y0306024D01*
X0037778Y0306040D01*
X0037618Y0306060D01*
X0037459Y0306084D01*
X0037301Y0306112D01*
X0037143Y0306143D01*
X0036987Y0306179D01*
X0036831Y0306218D01*
X0036676Y0306261D01*
X0036522Y0306308D01*
X0036369Y0306359D01*
X0036218Y0306414D01*
X0036068Y0306472D01*
X0035920Y0306534D01*
X0035773Y0306600D01*
X0035628Y0306669D01*
X0035485Y0306742D01*
X0035343Y0306818D01*
X0035204Y0306898D01*
X0035066Y0306981D01*
X0034931Y0307068D01*
X0034797Y0307158D01*
X0034666Y0307251D01*
X0034538Y0307347D01*
X0034412Y0307447D01*
X0034288Y0307550D01*
X0034167Y0307655D01*
X0034048Y0307764D01*
X0033932Y0307875D01*
X0033819Y0307990D01*
X0033709Y0308107D01*
X0033602Y0308227D01*
X0033498Y0308349D01*
X0033397Y0308474D01*
X0033299Y0308602D01*
X0033204Y0308732D01*
X0033112Y0308864D01*
X0033024Y0308998D01*
X0032939Y0309135D01*
X0032857Y0309273D01*
X0032779Y0309414D01*
X0032705Y0309556D01*
X0032634Y0309700D01*
X0032566Y0309846D01*
X0032503Y0309994D01*
X0032442Y0310143D01*
X0032386Y0310294D01*
X0032333Y0310446D01*
X0032284Y0310599D01*
X0032239Y0310753D01*
X0032198Y0310908D01*
X0032160Y0311065D01*
X0032127Y0311222D01*
X0032097Y0311380D01*
X0032071Y0311539D01*
X0032050Y0311698D01*
X0032032Y0311858D01*
X0032018Y0312018D01*
X0032008Y0312179D01*
X0032002Y0312339D01*
X0032000Y0312500D01*
X0032000Y0290500D02*
X0032002Y0290661D01*
X0032008Y0290821D01*
X0032018Y0290982D01*
X0032032Y0291142D01*
X0032050Y0291302D01*
X0032071Y0291461D01*
X0032097Y0291620D01*
X0032127Y0291778D01*
X0032160Y0291935D01*
X0032198Y0292092D01*
X0032239Y0292247D01*
X0032284Y0292401D01*
X0032333Y0292554D01*
X0032386Y0292706D01*
X0032442Y0292857D01*
X0032503Y0293006D01*
X0032566Y0293154D01*
X0032634Y0293300D01*
X0032705Y0293444D01*
X0032779Y0293586D01*
X0032857Y0293727D01*
X0032939Y0293865D01*
X0033024Y0294002D01*
X0033112Y0294136D01*
X0033204Y0294268D01*
X0033299Y0294398D01*
X0033397Y0294526D01*
X0033498Y0294651D01*
X0033602Y0294773D01*
X0033709Y0294893D01*
X0033819Y0295010D01*
X0033932Y0295125D01*
X0034048Y0295236D01*
X0034167Y0295345D01*
X0034288Y0295450D01*
X0034412Y0295553D01*
X0034538Y0295653D01*
X0034666Y0295749D01*
X0034797Y0295842D01*
X0034931Y0295932D01*
X0035066Y0296019D01*
X0035204Y0296102D01*
X0035343Y0296182D01*
X0035485Y0296258D01*
X0035628Y0296331D01*
X0035773Y0296400D01*
X0035920Y0296466D01*
X0036068Y0296528D01*
X0036218Y0296586D01*
X0036369Y0296641D01*
X0036522Y0296692D01*
X0036676Y0296739D01*
X0036831Y0296782D01*
X0036987Y0296821D01*
X0037143Y0296857D01*
X0037301Y0296888D01*
X0037459Y0296916D01*
X0037618Y0296940D01*
X0037778Y0296960D01*
X0037938Y0296976D01*
X0038098Y0296988D01*
X0038259Y0296996D01*
X0038420Y0297000D01*
X0038580Y0297000D01*
X0038741Y0296996D01*
X0038902Y0296988D01*
X0039062Y0296976D01*
X0039222Y0296960D01*
X0039382Y0296940D01*
X0039541Y0296916D01*
X0039699Y0296888D01*
X0039857Y0296857D01*
X0040013Y0296821D01*
X0040169Y0296782D01*
X0040324Y0296739D01*
X0040478Y0296692D01*
X0040631Y0296641D01*
X0040782Y0296586D01*
X0040932Y0296528D01*
X0041080Y0296466D01*
X0041227Y0296400D01*
X0041372Y0296331D01*
X0041515Y0296258D01*
X0041657Y0296182D01*
X0041796Y0296102D01*
X0041934Y0296019D01*
X0042069Y0295932D01*
X0042203Y0295842D01*
X0042334Y0295749D01*
X0042462Y0295653D01*
X0042588Y0295553D01*
X0042712Y0295450D01*
X0042833Y0295345D01*
X0042952Y0295236D01*
X0043068Y0295125D01*
X0043181Y0295010D01*
X0043291Y0294893D01*
X0043398Y0294773D01*
X0043502Y0294651D01*
X0043603Y0294526D01*
X0043701Y0294398D01*
X0043796Y0294268D01*
X0043888Y0294136D01*
X0043976Y0294002D01*
X0044061Y0293865D01*
X0044143Y0293727D01*
X0044221Y0293586D01*
X0044295Y0293444D01*
X0044366Y0293300D01*
X0044434Y0293154D01*
X0044497Y0293006D01*
X0044558Y0292857D01*
X0044614Y0292706D01*
X0044667Y0292554D01*
X0044716Y0292401D01*
X0044761Y0292247D01*
X0044802Y0292092D01*
X0044840Y0291935D01*
X0044873Y0291778D01*
X0044903Y0291620D01*
X0044929Y0291461D01*
X0044950Y0291302D01*
X0044968Y0291142D01*
X0044982Y0290982D01*
X0044992Y0290821D01*
X0044998Y0290661D01*
X0045000Y0290500D01*
X0044998Y0290339D01*
X0044992Y0290179D01*
X0044982Y0290018D01*
X0044968Y0289858D01*
X0044950Y0289698D01*
X0044929Y0289539D01*
X0044903Y0289380D01*
X0044873Y0289222D01*
X0044840Y0289065D01*
X0044802Y0288908D01*
X0044761Y0288753D01*
X0044716Y0288599D01*
X0044667Y0288446D01*
X0044614Y0288294D01*
X0044558Y0288143D01*
X0044497Y0287994D01*
X0044434Y0287846D01*
X0044366Y0287700D01*
X0044295Y0287556D01*
X0044221Y0287414D01*
X0044143Y0287273D01*
X0044061Y0287135D01*
X0043976Y0286998D01*
X0043888Y0286864D01*
X0043796Y0286732D01*
X0043701Y0286602D01*
X0043603Y0286474D01*
X0043502Y0286349D01*
X0043398Y0286227D01*
X0043291Y0286107D01*
X0043181Y0285990D01*
X0043068Y0285875D01*
X0042952Y0285764D01*
X0042833Y0285655D01*
X0042712Y0285550D01*
X0042588Y0285447D01*
X0042462Y0285347D01*
X0042334Y0285251D01*
X0042203Y0285158D01*
X0042069Y0285068D01*
X0041934Y0284981D01*
X0041796Y0284898D01*
X0041657Y0284818D01*
X0041515Y0284742D01*
X0041372Y0284669D01*
X0041227Y0284600D01*
X0041080Y0284534D01*
X0040932Y0284472D01*
X0040782Y0284414D01*
X0040631Y0284359D01*
X0040478Y0284308D01*
X0040324Y0284261D01*
X0040169Y0284218D01*
X0040013Y0284179D01*
X0039857Y0284143D01*
X0039699Y0284112D01*
X0039541Y0284084D01*
X0039382Y0284060D01*
X0039222Y0284040D01*
X0039062Y0284024D01*
X0038902Y0284012D01*
X0038741Y0284004D01*
X0038580Y0284000D01*
X0038420Y0284000D01*
X0038259Y0284004D01*
X0038098Y0284012D01*
X0037938Y0284024D01*
X0037778Y0284040D01*
X0037618Y0284060D01*
X0037459Y0284084D01*
X0037301Y0284112D01*
X0037143Y0284143D01*
X0036987Y0284179D01*
X0036831Y0284218D01*
X0036676Y0284261D01*
X0036522Y0284308D01*
X0036369Y0284359D01*
X0036218Y0284414D01*
X0036068Y0284472D01*
X0035920Y0284534D01*
X0035773Y0284600D01*
X0035628Y0284669D01*
X0035485Y0284742D01*
X0035343Y0284818D01*
X0035204Y0284898D01*
X0035066Y0284981D01*
X0034931Y0285068D01*
X0034797Y0285158D01*
X0034666Y0285251D01*
X0034538Y0285347D01*
X0034412Y0285447D01*
X0034288Y0285550D01*
X0034167Y0285655D01*
X0034048Y0285764D01*
X0033932Y0285875D01*
X0033819Y0285990D01*
X0033709Y0286107D01*
X0033602Y0286227D01*
X0033498Y0286349D01*
X0033397Y0286474D01*
X0033299Y0286602D01*
X0033204Y0286732D01*
X0033112Y0286864D01*
X0033024Y0286998D01*
X0032939Y0287135D01*
X0032857Y0287273D01*
X0032779Y0287414D01*
X0032705Y0287556D01*
X0032634Y0287700D01*
X0032566Y0287846D01*
X0032503Y0287994D01*
X0032442Y0288143D01*
X0032386Y0288294D01*
X0032333Y0288446D01*
X0032284Y0288599D01*
X0032239Y0288753D01*
X0032198Y0288908D01*
X0032160Y0289065D01*
X0032127Y0289222D01*
X0032097Y0289380D01*
X0032071Y0289539D01*
X0032050Y0289698D01*
X0032032Y0289858D01*
X0032018Y0290018D01*
X0032008Y0290179D01*
X0032002Y0290339D01*
X0032000Y0290500D01*
X0032000Y0175500D02*
X0032002Y0175661D01*
X0032008Y0175821D01*
X0032018Y0175982D01*
X0032032Y0176142D01*
X0032050Y0176302D01*
X0032071Y0176461D01*
X0032097Y0176620D01*
X0032127Y0176778D01*
X0032160Y0176935D01*
X0032198Y0177092D01*
X0032239Y0177247D01*
X0032284Y0177401D01*
X0032333Y0177554D01*
X0032386Y0177706D01*
X0032442Y0177857D01*
X0032503Y0178006D01*
X0032566Y0178154D01*
X0032634Y0178300D01*
X0032705Y0178444D01*
X0032779Y0178586D01*
X0032857Y0178727D01*
X0032939Y0178865D01*
X0033024Y0179002D01*
X0033112Y0179136D01*
X0033204Y0179268D01*
X0033299Y0179398D01*
X0033397Y0179526D01*
X0033498Y0179651D01*
X0033602Y0179773D01*
X0033709Y0179893D01*
X0033819Y0180010D01*
X0033932Y0180125D01*
X0034048Y0180236D01*
X0034167Y0180345D01*
X0034288Y0180450D01*
X0034412Y0180553D01*
X0034538Y0180653D01*
X0034666Y0180749D01*
X0034797Y0180842D01*
X0034931Y0180932D01*
X0035066Y0181019D01*
X0035204Y0181102D01*
X0035343Y0181182D01*
X0035485Y0181258D01*
X0035628Y0181331D01*
X0035773Y0181400D01*
X0035920Y0181466D01*
X0036068Y0181528D01*
X0036218Y0181586D01*
X0036369Y0181641D01*
X0036522Y0181692D01*
X0036676Y0181739D01*
X0036831Y0181782D01*
X0036987Y0181821D01*
X0037143Y0181857D01*
X0037301Y0181888D01*
X0037459Y0181916D01*
X0037618Y0181940D01*
X0037778Y0181960D01*
X0037938Y0181976D01*
X0038098Y0181988D01*
X0038259Y0181996D01*
X0038420Y0182000D01*
X0038580Y0182000D01*
X0038741Y0181996D01*
X0038902Y0181988D01*
X0039062Y0181976D01*
X0039222Y0181960D01*
X0039382Y0181940D01*
X0039541Y0181916D01*
X0039699Y0181888D01*
X0039857Y0181857D01*
X0040013Y0181821D01*
X0040169Y0181782D01*
X0040324Y0181739D01*
X0040478Y0181692D01*
X0040631Y0181641D01*
X0040782Y0181586D01*
X0040932Y0181528D01*
X0041080Y0181466D01*
X0041227Y0181400D01*
X0041372Y0181331D01*
X0041515Y0181258D01*
X0041657Y0181182D01*
X0041796Y0181102D01*
X0041934Y0181019D01*
X0042069Y0180932D01*
X0042203Y0180842D01*
X0042334Y0180749D01*
X0042462Y0180653D01*
X0042588Y0180553D01*
X0042712Y0180450D01*
X0042833Y0180345D01*
X0042952Y0180236D01*
X0043068Y0180125D01*
X0043181Y0180010D01*
X0043291Y0179893D01*
X0043398Y0179773D01*
X0043502Y0179651D01*
X0043603Y0179526D01*
X0043701Y0179398D01*
X0043796Y0179268D01*
X0043888Y0179136D01*
X0043976Y0179002D01*
X0044061Y0178865D01*
X0044143Y0178727D01*
X0044221Y0178586D01*
X0044295Y0178444D01*
X0044366Y0178300D01*
X0044434Y0178154D01*
X0044497Y0178006D01*
X0044558Y0177857D01*
X0044614Y0177706D01*
X0044667Y0177554D01*
X0044716Y0177401D01*
X0044761Y0177247D01*
X0044802Y0177092D01*
X0044840Y0176935D01*
X0044873Y0176778D01*
X0044903Y0176620D01*
X0044929Y0176461D01*
X0044950Y0176302D01*
X0044968Y0176142D01*
X0044982Y0175982D01*
X0044992Y0175821D01*
X0044998Y0175661D01*
X0045000Y0175500D01*
X0044998Y0175339D01*
X0044992Y0175179D01*
X0044982Y0175018D01*
X0044968Y0174858D01*
X0044950Y0174698D01*
X0044929Y0174539D01*
X0044903Y0174380D01*
X0044873Y0174222D01*
X0044840Y0174065D01*
X0044802Y0173908D01*
X0044761Y0173753D01*
X0044716Y0173599D01*
X0044667Y0173446D01*
X0044614Y0173294D01*
X0044558Y0173143D01*
X0044497Y0172994D01*
X0044434Y0172846D01*
X0044366Y0172700D01*
X0044295Y0172556D01*
X0044221Y0172414D01*
X0044143Y0172273D01*
X0044061Y0172135D01*
X0043976Y0171998D01*
X0043888Y0171864D01*
X0043796Y0171732D01*
X0043701Y0171602D01*
X0043603Y0171474D01*
X0043502Y0171349D01*
X0043398Y0171227D01*
X0043291Y0171107D01*
X0043181Y0170990D01*
X0043068Y0170875D01*
X0042952Y0170764D01*
X0042833Y0170655D01*
X0042712Y0170550D01*
X0042588Y0170447D01*
X0042462Y0170347D01*
X0042334Y0170251D01*
X0042203Y0170158D01*
X0042069Y0170068D01*
X0041934Y0169981D01*
X0041796Y0169898D01*
X0041657Y0169818D01*
X0041515Y0169742D01*
X0041372Y0169669D01*
X0041227Y0169600D01*
X0041080Y0169534D01*
X0040932Y0169472D01*
X0040782Y0169414D01*
X0040631Y0169359D01*
X0040478Y0169308D01*
X0040324Y0169261D01*
X0040169Y0169218D01*
X0040013Y0169179D01*
X0039857Y0169143D01*
X0039699Y0169112D01*
X0039541Y0169084D01*
X0039382Y0169060D01*
X0039222Y0169040D01*
X0039062Y0169024D01*
X0038902Y0169012D01*
X0038741Y0169004D01*
X0038580Y0169000D01*
X0038420Y0169000D01*
X0038259Y0169004D01*
X0038098Y0169012D01*
X0037938Y0169024D01*
X0037778Y0169040D01*
X0037618Y0169060D01*
X0037459Y0169084D01*
X0037301Y0169112D01*
X0037143Y0169143D01*
X0036987Y0169179D01*
X0036831Y0169218D01*
X0036676Y0169261D01*
X0036522Y0169308D01*
X0036369Y0169359D01*
X0036218Y0169414D01*
X0036068Y0169472D01*
X0035920Y0169534D01*
X0035773Y0169600D01*
X0035628Y0169669D01*
X0035485Y0169742D01*
X0035343Y0169818D01*
X0035204Y0169898D01*
X0035066Y0169981D01*
X0034931Y0170068D01*
X0034797Y0170158D01*
X0034666Y0170251D01*
X0034538Y0170347D01*
X0034412Y0170447D01*
X0034288Y0170550D01*
X0034167Y0170655D01*
X0034048Y0170764D01*
X0033932Y0170875D01*
X0033819Y0170990D01*
X0033709Y0171107D01*
X0033602Y0171227D01*
X0033498Y0171349D01*
X0033397Y0171474D01*
X0033299Y0171602D01*
X0033204Y0171732D01*
X0033112Y0171864D01*
X0033024Y0171998D01*
X0032939Y0172135D01*
X0032857Y0172273D01*
X0032779Y0172414D01*
X0032705Y0172556D01*
X0032634Y0172700D01*
X0032566Y0172846D01*
X0032503Y0172994D01*
X0032442Y0173143D01*
X0032386Y0173294D01*
X0032333Y0173446D01*
X0032284Y0173599D01*
X0032239Y0173753D01*
X0032198Y0173908D01*
X0032160Y0174065D01*
X0032127Y0174222D01*
X0032097Y0174380D01*
X0032071Y0174539D01*
X0032050Y0174698D01*
X0032032Y0174858D01*
X0032018Y0175018D01*
X0032008Y0175179D01*
X0032002Y0175339D01*
X0032000Y0175500D01*
X0032000Y0153500D02*
X0032002Y0153661D01*
X0032008Y0153821D01*
X0032018Y0153982D01*
X0032032Y0154142D01*
X0032050Y0154302D01*
X0032071Y0154461D01*
X0032097Y0154620D01*
X0032127Y0154778D01*
X0032160Y0154935D01*
X0032198Y0155092D01*
X0032239Y0155247D01*
X0032284Y0155401D01*
X0032333Y0155554D01*
X0032386Y0155706D01*
X0032442Y0155857D01*
X0032503Y0156006D01*
X0032566Y0156154D01*
X0032634Y0156300D01*
X0032705Y0156444D01*
X0032779Y0156586D01*
X0032857Y0156727D01*
X0032939Y0156865D01*
X0033024Y0157002D01*
X0033112Y0157136D01*
X0033204Y0157268D01*
X0033299Y0157398D01*
X0033397Y0157526D01*
X0033498Y0157651D01*
X0033602Y0157773D01*
X0033709Y0157893D01*
X0033819Y0158010D01*
X0033932Y0158125D01*
X0034048Y0158236D01*
X0034167Y0158345D01*
X0034288Y0158450D01*
X0034412Y0158553D01*
X0034538Y0158653D01*
X0034666Y0158749D01*
X0034797Y0158842D01*
X0034931Y0158932D01*
X0035066Y0159019D01*
X0035204Y0159102D01*
X0035343Y0159182D01*
X0035485Y0159258D01*
X0035628Y0159331D01*
X0035773Y0159400D01*
X0035920Y0159466D01*
X0036068Y0159528D01*
X0036218Y0159586D01*
X0036369Y0159641D01*
X0036522Y0159692D01*
X0036676Y0159739D01*
X0036831Y0159782D01*
X0036987Y0159821D01*
X0037143Y0159857D01*
X0037301Y0159888D01*
X0037459Y0159916D01*
X0037618Y0159940D01*
X0037778Y0159960D01*
X0037938Y0159976D01*
X0038098Y0159988D01*
X0038259Y0159996D01*
X0038420Y0160000D01*
X0038580Y0160000D01*
X0038741Y0159996D01*
X0038902Y0159988D01*
X0039062Y0159976D01*
X0039222Y0159960D01*
X0039382Y0159940D01*
X0039541Y0159916D01*
X0039699Y0159888D01*
X0039857Y0159857D01*
X0040013Y0159821D01*
X0040169Y0159782D01*
X0040324Y0159739D01*
X0040478Y0159692D01*
X0040631Y0159641D01*
X0040782Y0159586D01*
X0040932Y0159528D01*
X0041080Y0159466D01*
X0041227Y0159400D01*
X0041372Y0159331D01*
X0041515Y0159258D01*
X0041657Y0159182D01*
X0041796Y0159102D01*
X0041934Y0159019D01*
X0042069Y0158932D01*
X0042203Y0158842D01*
X0042334Y0158749D01*
X0042462Y0158653D01*
X0042588Y0158553D01*
X0042712Y0158450D01*
X0042833Y0158345D01*
X0042952Y0158236D01*
X0043068Y0158125D01*
X0043181Y0158010D01*
X0043291Y0157893D01*
X0043398Y0157773D01*
X0043502Y0157651D01*
X0043603Y0157526D01*
X0043701Y0157398D01*
X0043796Y0157268D01*
X0043888Y0157136D01*
X0043976Y0157002D01*
X0044061Y0156865D01*
X0044143Y0156727D01*
X0044221Y0156586D01*
X0044295Y0156444D01*
X0044366Y0156300D01*
X0044434Y0156154D01*
X0044497Y0156006D01*
X0044558Y0155857D01*
X0044614Y0155706D01*
X0044667Y0155554D01*
X0044716Y0155401D01*
X0044761Y0155247D01*
X0044802Y0155092D01*
X0044840Y0154935D01*
X0044873Y0154778D01*
X0044903Y0154620D01*
X0044929Y0154461D01*
X0044950Y0154302D01*
X0044968Y0154142D01*
X0044982Y0153982D01*
X0044992Y0153821D01*
X0044998Y0153661D01*
X0045000Y0153500D01*
X0044998Y0153339D01*
X0044992Y0153179D01*
X0044982Y0153018D01*
X0044968Y0152858D01*
X0044950Y0152698D01*
X0044929Y0152539D01*
X0044903Y0152380D01*
X0044873Y0152222D01*
X0044840Y0152065D01*
X0044802Y0151908D01*
X0044761Y0151753D01*
X0044716Y0151599D01*
X0044667Y0151446D01*
X0044614Y0151294D01*
X0044558Y0151143D01*
X0044497Y0150994D01*
X0044434Y0150846D01*
X0044366Y0150700D01*
X0044295Y0150556D01*
X0044221Y0150414D01*
X0044143Y0150273D01*
X0044061Y0150135D01*
X0043976Y0149998D01*
X0043888Y0149864D01*
X0043796Y0149732D01*
X0043701Y0149602D01*
X0043603Y0149474D01*
X0043502Y0149349D01*
X0043398Y0149227D01*
X0043291Y0149107D01*
X0043181Y0148990D01*
X0043068Y0148875D01*
X0042952Y0148764D01*
X0042833Y0148655D01*
X0042712Y0148550D01*
X0042588Y0148447D01*
X0042462Y0148347D01*
X0042334Y0148251D01*
X0042203Y0148158D01*
X0042069Y0148068D01*
X0041934Y0147981D01*
X0041796Y0147898D01*
X0041657Y0147818D01*
X0041515Y0147742D01*
X0041372Y0147669D01*
X0041227Y0147600D01*
X0041080Y0147534D01*
X0040932Y0147472D01*
X0040782Y0147414D01*
X0040631Y0147359D01*
X0040478Y0147308D01*
X0040324Y0147261D01*
X0040169Y0147218D01*
X0040013Y0147179D01*
X0039857Y0147143D01*
X0039699Y0147112D01*
X0039541Y0147084D01*
X0039382Y0147060D01*
X0039222Y0147040D01*
X0039062Y0147024D01*
X0038902Y0147012D01*
X0038741Y0147004D01*
X0038580Y0147000D01*
X0038420Y0147000D01*
X0038259Y0147004D01*
X0038098Y0147012D01*
X0037938Y0147024D01*
X0037778Y0147040D01*
X0037618Y0147060D01*
X0037459Y0147084D01*
X0037301Y0147112D01*
X0037143Y0147143D01*
X0036987Y0147179D01*
X0036831Y0147218D01*
X0036676Y0147261D01*
X0036522Y0147308D01*
X0036369Y0147359D01*
X0036218Y0147414D01*
X0036068Y0147472D01*
X0035920Y0147534D01*
X0035773Y0147600D01*
X0035628Y0147669D01*
X0035485Y0147742D01*
X0035343Y0147818D01*
X0035204Y0147898D01*
X0035066Y0147981D01*
X0034931Y0148068D01*
X0034797Y0148158D01*
X0034666Y0148251D01*
X0034538Y0148347D01*
X0034412Y0148447D01*
X0034288Y0148550D01*
X0034167Y0148655D01*
X0034048Y0148764D01*
X0033932Y0148875D01*
X0033819Y0148990D01*
X0033709Y0149107D01*
X0033602Y0149227D01*
X0033498Y0149349D01*
X0033397Y0149474D01*
X0033299Y0149602D01*
X0033204Y0149732D01*
X0033112Y0149864D01*
X0033024Y0149998D01*
X0032939Y0150135D01*
X0032857Y0150273D01*
X0032779Y0150414D01*
X0032705Y0150556D01*
X0032634Y0150700D01*
X0032566Y0150846D01*
X0032503Y0150994D01*
X0032442Y0151143D01*
X0032386Y0151294D01*
X0032333Y0151446D01*
X0032284Y0151599D01*
X0032239Y0151753D01*
X0032198Y0151908D01*
X0032160Y0152065D01*
X0032127Y0152222D01*
X0032097Y0152380D01*
X0032071Y0152539D01*
X0032050Y0152698D01*
X0032032Y0152858D01*
X0032018Y0153018D01*
X0032008Y0153179D01*
X0032002Y0153339D01*
X0032000Y0153500D01*
X0032000Y0038500D02*
X0032002Y0038661D01*
X0032008Y0038821D01*
X0032018Y0038982D01*
X0032032Y0039142D01*
X0032050Y0039302D01*
X0032071Y0039461D01*
X0032097Y0039620D01*
X0032127Y0039778D01*
X0032160Y0039935D01*
X0032198Y0040092D01*
X0032239Y0040247D01*
X0032284Y0040401D01*
X0032333Y0040554D01*
X0032386Y0040706D01*
X0032442Y0040857D01*
X0032503Y0041006D01*
X0032566Y0041154D01*
X0032634Y0041300D01*
X0032705Y0041444D01*
X0032779Y0041586D01*
X0032857Y0041727D01*
X0032939Y0041865D01*
X0033024Y0042002D01*
X0033112Y0042136D01*
X0033204Y0042268D01*
X0033299Y0042398D01*
X0033397Y0042526D01*
X0033498Y0042651D01*
X0033602Y0042773D01*
X0033709Y0042893D01*
X0033819Y0043010D01*
X0033932Y0043125D01*
X0034048Y0043236D01*
X0034167Y0043345D01*
X0034288Y0043450D01*
X0034412Y0043553D01*
X0034538Y0043653D01*
X0034666Y0043749D01*
X0034797Y0043842D01*
X0034931Y0043932D01*
X0035066Y0044019D01*
X0035204Y0044102D01*
X0035343Y0044182D01*
X0035485Y0044258D01*
X0035628Y0044331D01*
X0035773Y0044400D01*
X0035920Y0044466D01*
X0036068Y0044528D01*
X0036218Y0044586D01*
X0036369Y0044641D01*
X0036522Y0044692D01*
X0036676Y0044739D01*
X0036831Y0044782D01*
X0036987Y0044821D01*
X0037143Y0044857D01*
X0037301Y0044888D01*
X0037459Y0044916D01*
X0037618Y0044940D01*
X0037778Y0044960D01*
X0037938Y0044976D01*
X0038098Y0044988D01*
X0038259Y0044996D01*
X0038420Y0045000D01*
X0038580Y0045000D01*
X0038741Y0044996D01*
X0038902Y0044988D01*
X0039062Y0044976D01*
X0039222Y0044960D01*
X0039382Y0044940D01*
X0039541Y0044916D01*
X0039699Y0044888D01*
X0039857Y0044857D01*
X0040013Y0044821D01*
X0040169Y0044782D01*
X0040324Y0044739D01*
X0040478Y0044692D01*
X0040631Y0044641D01*
X0040782Y0044586D01*
X0040932Y0044528D01*
X0041080Y0044466D01*
X0041227Y0044400D01*
X0041372Y0044331D01*
X0041515Y0044258D01*
X0041657Y0044182D01*
X0041796Y0044102D01*
X0041934Y0044019D01*
X0042069Y0043932D01*
X0042203Y0043842D01*
X0042334Y0043749D01*
X0042462Y0043653D01*
X0042588Y0043553D01*
X0042712Y0043450D01*
X0042833Y0043345D01*
X0042952Y0043236D01*
X0043068Y0043125D01*
X0043181Y0043010D01*
X0043291Y0042893D01*
X0043398Y0042773D01*
X0043502Y0042651D01*
X0043603Y0042526D01*
X0043701Y0042398D01*
X0043796Y0042268D01*
X0043888Y0042136D01*
X0043976Y0042002D01*
X0044061Y0041865D01*
X0044143Y0041727D01*
X0044221Y0041586D01*
X0044295Y0041444D01*
X0044366Y0041300D01*
X0044434Y0041154D01*
X0044497Y0041006D01*
X0044558Y0040857D01*
X0044614Y0040706D01*
X0044667Y0040554D01*
X0044716Y0040401D01*
X0044761Y0040247D01*
X0044802Y0040092D01*
X0044840Y0039935D01*
X0044873Y0039778D01*
X0044903Y0039620D01*
X0044929Y0039461D01*
X0044950Y0039302D01*
X0044968Y0039142D01*
X0044982Y0038982D01*
X0044992Y0038821D01*
X0044998Y0038661D01*
X0045000Y0038500D01*
X0044998Y0038339D01*
X0044992Y0038179D01*
X0044982Y0038018D01*
X0044968Y0037858D01*
X0044950Y0037698D01*
X0044929Y0037539D01*
X0044903Y0037380D01*
X0044873Y0037222D01*
X0044840Y0037065D01*
X0044802Y0036908D01*
X0044761Y0036753D01*
X0044716Y0036599D01*
X0044667Y0036446D01*
X0044614Y0036294D01*
X0044558Y0036143D01*
X0044497Y0035994D01*
X0044434Y0035846D01*
X0044366Y0035700D01*
X0044295Y0035556D01*
X0044221Y0035414D01*
X0044143Y0035273D01*
X0044061Y0035135D01*
X0043976Y0034998D01*
X0043888Y0034864D01*
X0043796Y0034732D01*
X0043701Y0034602D01*
X0043603Y0034474D01*
X0043502Y0034349D01*
X0043398Y0034227D01*
X0043291Y0034107D01*
X0043181Y0033990D01*
X0043068Y0033875D01*
X0042952Y0033764D01*
X0042833Y0033655D01*
X0042712Y0033550D01*
X0042588Y0033447D01*
X0042462Y0033347D01*
X0042334Y0033251D01*
X0042203Y0033158D01*
X0042069Y0033068D01*
X0041934Y0032981D01*
X0041796Y0032898D01*
X0041657Y0032818D01*
X0041515Y0032742D01*
X0041372Y0032669D01*
X0041227Y0032600D01*
X0041080Y0032534D01*
X0040932Y0032472D01*
X0040782Y0032414D01*
X0040631Y0032359D01*
X0040478Y0032308D01*
X0040324Y0032261D01*
X0040169Y0032218D01*
X0040013Y0032179D01*
X0039857Y0032143D01*
X0039699Y0032112D01*
X0039541Y0032084D01*
X0039382Y0032060D01*
X0039222Y0032040D01*
X0039062Y0032024D01*
X0038902Y0032012D01*
X0038741Y0032004D01*
X0038580Y0032000D01*
X0038420Y0032000D01*
X0038259Y0032004D01*
X0038098Y0032012D01*
X0037938Y0032024D01*
X0037778Y0032040D01*
X0037618Y0032060D01*
X0037459Y0032084D01*
X0037301Y0032112D01*
X0037143Y0032143D01*
X0036987Y0032179D01*
X0036831Y0032218D01*
X0036676Y0032261D01*
X0036522Y0032308D01*
X0036369Y0032359D01*
X0036218Y0032414D01*
X0036068Y0032472D01*
X0035920Y0032534D01*
X0035773Y0032600D01*
X0035628Y0032669D01*
X0035485Y0032742D01*
X0035343Y0032818D01*
X0035204Y0032898D01*
X0035066Y0032981D01*
X0034931Y0033068D01*
X0034797Y0033158D01*
X0034666Y0033251D01*
X0034538Y0033347D01*
X0034412Y0033447D01*
X0034288Y0033550D01*
X0034167Y0033655D01*
X0034048Y0033764D01*
X0033932Y0033875D01*
X0033819Y0033990D01*
X0033709Y0034107D01*
X0033602Y0034227D01*
X0033498Y0034349D01*
X0033397Y0034474D01*
X0033299Y0034602D01*
X0033204Y0034732D01*
X0033112Y0034864D01*
X0033024Y0034998D01*
X0032939Y0035135D01*
X0032857Y0035273D01*
X0032779Y0035414D01*
X0032705Y0035556D01*
X0032634Y0035700D01*
X0032566Y0035846D01*
X0032503Y0035994D01*
X0032442Y0036143D01*
X0032386Y0036294D01*
X0032333Y0036446D01*
X0032284Y0036599D01*
X0032239Y0036753D01*
X0032198Y0036908D01*
X0032160Y0037065D01*
X0032127Y0037222D01*
X0032097Y0037380D01*
X0032071Y0037539D01*
X0032050Y0037698D01*
X0032032Y0037858D01*
X0032018Y0038018D01*
X0032008Y0038179D01*
X0032002Y0038339D01*
X0032000Y0038500D01*
X0239000Y0038500D02*
X0239002Y0038661D01*
X0239008Y0038821D01*
X0239018Y0038982D01*
X0239032Y0039142D01*
X0239050Y0039302D01*
X0239071Y0039461D01*
X0239097Y0039620D01*
X0239127Y0039778D01*
X0239160Y0039935D01*
X0239198Y0040092D01*
X0239239Y0040247D01*
X0239284Y0040401D01*
X0239333Y0040554D01*
X0239386Y0040706D01*
X0239442Y0040857D01*
X0239503Y0041006D01*
X0239566Y0041154D01*
X0239634Y0041300D01*
X0239705Y0041444D01*
X0239779Y0041586D01*
X0239857Y0041727D01*
X0239939Y0041865D01*
X0240024Y0042002D01*
X0240112Y0042136D01*
X0240204Y0042268D01*
X0240299Y0042398D01*
X0240397Y0042526D01*
X0240498Y0042651D01*
X0240602Y0042773D01*
X0240709Y0042893D01*
X0240819Y0043010D01*
X0240932Y0043125D01*
X0241048Y0043236D01*
X0241167Y0043345D01*
X0241288Y0043450D01*
X0241412Y0043553D01*
X0241538Y0043653D01*
X0241666Y0043749D01*
X0241797Y0043842D01*
X0241931Y0043932D01*
X0242066Y0044019D01*
X0242204Y0044102D01*
X0242343Y0044182D01*
X0242485Y0044258D01*
X0242628Y0044331D01*
X0242773Y0044400D01*
X0242920Y0044466D01*
X0243068Y0044528D01*
X0243218Y0044586D01*
X0243369Y0044641D01*
X0243522Y0044692D01*
X0243676Y0044739D01*
X0243831Y0044782D01*
X0243987Y0044821D01*
X0244143Y0044857D01*
X0244301Y0044888D01*
X0244459Y0044916D01*
X0244618Y0044940D01*
X0244778Y0044960D01*
X0244938Y0044976D01*
X0245098Y0044988D01*
X0245259Y0044996D01*
X0245420Y0045000D01*
X0245580Y0045000D01*
X0245741Y0044996D01*
X0245902Y0044988D01*
X0246062Y0044976D01*
X0246222Y0044960D01*
X0246382Y0044940D01*
X0246541Y0044916D01*
X0246699Y0044888D01*
X0246857Y0044857D01*
X0247013Y0044821D01*
X0247169Y0044782D01*
X0247324Y0044739D01*
X0247478Y0044692D01*
X0247631Y0044641D01*
X0247782Y0044586D01*
X0247932Y0044528D01*
X0248080Y0044466D01*
X0248227Y0044400D01*
X0248372Y0044331D01*
X0248515Y0044258D01*
X0248657Y0044182D01*
X0248796Y0044102D01*
X0248934Y0044019D01*
X0249069Y0043932D01*
X0249203Y0043842D01*
X0249334Y0043749D01*
X0249462Y0043653D01*
X0249588Y0043553D01*
X0249712Y0043450D01*
X0249833Y0043345D01*
X0249952Y0043236D01*
X0250068Y0043125D01*
X0250181Y0043010D01*
X0250291Y0042893D01*
X0250398Y0042773D01*
X0250502Y0042651D01*
X0250603Y0042526D01*
X0250701Y0042398D01*
X0250796Y0042268D01*
X0250888Y0042136D01*
X0250976Y0042002D01*
X0251061Y0041865D01*
X0251143Y0041727D01*
X0251221Y0041586D01*
X0251295Y0041444D01*
X0251366Y0041300D01*
X0251434Y0041154D01*
X0251497Y0041006D01*
X0251558Y0040857D01*
X0251614Y0040706D01*
X0251667Y0040554D01*
X0251716Y0040401D01*
X0251761Y0040247D01*
X0251802Y0040092D01*
X0251840Y0039935D01*
X0251873Y0039778D01*
X0251903Y0039620D01*
X0251929Y0039461D01*
X0251950Y0039302D01*
X0251968Y0039142D01*
X0251982Y0038982D01*
X0251992Y0038821D01*
X0251998Y0038661D01*
X0252000Y0038500D01*
X0251998Y0038339D01*
X0251992Y0038179D01*
X0251982Y0038018D01*
X0251968Y0037858D01*
X0251950Y0037698D01*
X0251929Y0037539D01*
X0251903Y0037380D01*
X0251873Y0037222D01*
X0251840Y0037065D01*
X0251802Y0036908D01*
X0251761Y0036753D01*
X0251716Y0036599D01*
X0251667Y0036446D01*
X0251614Y0036294D01*
X0251558Y0036143D01*
X0251497Y0035994D01*
X0251434Y0035846D01*
X0251366Y0035700D01*
X0251295Y0035556D01*
X0251221Y0035414D01*
X0251143Y0035273D01*
X0251061Y0035135D01*
X0250976Y0034998D01*
X0250888Y0034864D01*
X0250796Y0034732D01*
X0250701Y0034602D01*
X0250603Y0034474D01*
X0250502Y0034349D01*
X0250398Y0034227D01*
X0250291Y0034107D01*
X0250181Y0033990D01*
X0250068Y0033875D01*
X0249952Y0033764D01*
X0249833Y0033655D01*
X0249712Y0033550D01*
X0249588Y0033447D01*
X0249462Y0033347D01*
X0249334Y0033251D01*
X0249203Y0033158D01*
X0249069Y0033068D01*
X0248934Y0032981D01*
X0248796Y0032898D01*
X0248657Y0032818D01*
X0248515Y0032742D01*
X0248372Y0032669D01*
X0248227Y0032600D01*
X0248080Y0032534D01*
X0247932Y0032472D01*
X0247782Y0032414D01*
X0247631Y0032359D01*
X0247478Y0032308D01*
X0247324Y0032261D01*
X0247169Y0032218D01*
X0247013Y0032179D01*
X0246857Y0032143D01*
X0246699Y0032112D01*
X0246541Y0032084D01*
X0246382Y0032060D01*
X0246222Y0032040D01*
X0246062Y0032024D01*
X0245902Y0032012D01*
X0245741Y0032004D01*
X0245580Y0032000D01*
X0245420Y0032000D01*
X0245259Y0032004D01*
X0245098Y0032012D01*
X0244938Y0032024D01*
X0244778Y0032040D01*
X0244618Y0032060D01*
X0244459Y0032084D01*
X0244301Y0032112D01*
X0244143Y0032143D01*
X0243987Y0032179D01*
X0243831Y0032218D01*
X0243676Y0032261D01*
X0243522Y0032308D01*
X0243369Y0032359D01*
X0243218Y0032414D01*
X0243068Y0032472D01*
X0242920Y0032534D01*
X0242773Y0032600D01*
X0242628Y0032669D01*
X0242485Y0032742D01*
X0242343Y0032818D01*
X0242204Y0032898D01*
X0242066Y0032981D01*
X0241931Y0033068D01*
X0241797Y0033158D01*
X0241666Y0033251D01*
X0241538Y0033347D01*
X0241412Y0033447D01*
X0241288Y0033550D01*
X0241167Y0033655D01*
X0241048Y0033764D01*
X0240932Y0033875D01*
X0240819Y0033990D01*
X0240709Y0034107D01*
X0240602Y0034227D01*
X0240498Y0034349D01*
X0240397Y0034474D01*
X0240299Y0034602D01*
X0240204Y0034732D01*
X0240112Y0034864D01*
X0240024Y0034998D01*
X0239939Y0035135D01*
X0239857Y0035273D01*
X0239779Y0035414D01*
X0239705Y0035556D01*
X0239634Y0035700D01*
X0239566Y0035846D01*
X0239503Y0035994D01*
X0239442Y0036143D01*
X0239386Y0036294D01*
X0239333Y0036446D01*
X0239284Y0036599D01*
X0239239Y0036753D01*
X0239198Y0036908D01*
X0239160Y0037065D01*
X0239127Y0037222D01*
X0239097Y0037380D01*
X0239071Y0037539D01*
X0239050Y0037698D01*
X0239032Y0037858D01*
X0239018Y0038018D01*
X0239008Y0038179D01*
X0239002Y0038339D01*
X0239000Y0038500D01*
X0239000Y0153500D02*
X0239002Y0153661D01*
X0239008Y0153821D01*
X0239018Y0153982D01*
X0239032Y0154142D01*
X0239050Y0154302D01*
X0239071Y0154461D01*
X0239097Y0154620D01*
X0239127Y0154778D01*
X0239160Y0154935D01*
X0239198Y0155092D01*
X0239239Y0155247D01*
X0239284Y0155401D01*
X0239333Y0155554D01*
X0239386Y0155706D01*
X0239442Y0155857D01*
X0239503Y0156006D01*
X0239566Y0156154D01*
X0239634Y0156300D01*
X0239705Y0156444D01*
X0239779Y0156586D01*
X0239857Y0156727D01*
X0239939Y0156865D01*
X0240024Y0157002D01*
X0240112Y0157136D01*
X0240204Y0157268D01*
X0240299Y0157398D01*
X0240397Y0157526D01*
X0240498Y0157651D01*
X0240602Y0157773D01*
X0240709Y0157893D01*
X0240819Y0158010D01*
X0240932Y0158125D01*
X0241048Y0158236D01*
X0241167Y0158345D01*
X0241288Y0158450D01*
X0241412Y0158553D01*
X0241538Y0158653D01*
X0241666Y0158749D01*
X0241797Y0158842D01*
X0241931Y0158932D01*
X0242066Y0159019D01*
X0242204Y0159102D01*
X0242343Y0159182D01*
X0242485Y0159258D01*
X0242628Y0159331D01*
X0242773Y0159400D01*
X0242920Y0159466D01*
X0243068Y0159528D01*
X0243218Y0159586D01*
X0243369Y0159641D01*
X0243522Y0159692D01*
X0243676Y0159739D01*
X0243831Y0159782D01*
X0243987Y0159821D01*
X0244143Y0159857D01*
X0244301Y0159888D01*
X0244459Y0159916D01*
X0244618Y0159940D01*
X0244778Y0159960D01*
X0244938Y0159976D01*
X0245098Y0159988D01*
X0245259Y0159996D01*
X0245420Y0160000D01*
X0245580Y0160000D01*
X0245741Y0159996D01*
X0245902Y0159988D01*
X0246062Y0159976D01*
X0246222Y0159960D01*
X0246382Y0159940D01*
X0246541Y0159916D01*
X0246699Y0159888D01*
X0246857Y0159857D01*
X0247013Y0159821D01*
X0247169Y0159782D01*
X0247324Y0159739D01*
X0247478Y0159692D01*
X0247631Y0159641D01*
X0247782Y0159586D01*
X0247932Y0159528D01*
X0248080Y0159466D01*
X0248227Y0159400D01*
X0248372Y0159331D01*
X0248515Y0159258D01*
X0248657Y0159182D01*
X0248796Y0159102D01*
X0248934Y0159019D01*
X0249069Y0158932D01*
X0249203Y0158842D01*
X0249334Y0158749D01*
X0249462Y0158653D01*
X0249588Y0158553D01*
X0249712Y0158450D01*
X0249833Y0158345D01*
X0249952Y0158236D01*
X0250068Y0158125D01*
X0250181Y0158010D01*
X0250291Y0157893D01*
X0250398Y0157773D01*
X0250502Y0157651D01*
X0250603Y0157526D01*
X0250701Y0157398D01*
X0250796Y0157268D01*
X0250888Y0157136D01*
X0250976Y0157002D01*
X0251061Y0156865D01*
X0251143Y0156727D01*
X0251221Y0156586D01*
X0251295Y0156444D01*
X0251366Y0156300D01*
X0251434Y0156154D01*
X0251497Y0156006D01*
X0251558Y0155857D01*
X0251614Y0155706D01*
X0251667Y0155554D01*
X0251716Y0155401D01*
X0251761Y0155247D01*
X0251802Y0155092D01*
X0251840Y0154935D01*
X0251873Y0154778D01*
X0251903Y0154620D01*
X0251929Y0154461D01*
X0251950Y0154302D01*
X0251968Y0154142D01*
X0251982Y0153982D01*
X0251992Y0153821D01*
X0251998Y0153661D01*
X0252000Y0153500D01*
X0251998Y0153339D01*
X0251992Y0153179D01*
X0251982Y0153018D01*
X0251968Y0152858D01*
X0251950Y0152698D01*
X0251929Y0152539D01*
X0251903Y0152380D01*
X0251873Y0152222D01*
X0251840Y0152065D01*
X0251802Y0151908D01*
X0251761Y0151753D01*
X0251716Y0151599D01*
X0251667Y0151446D01*
X0251614Y0151294D01*
X0251558Y0151143D01*
X0251497Y0150994D01*
X0251434Y0150846D01*
X0251366Y0150700D01*
X0251295Y0150556D01*
X0251221Y0150414D01*
X0251143Y0150273D01*
X0251061Y0150135D01*
X0250976Y0149998D01*
X0250888Y0149864D01*
X0250796Y0149732D01*
X0250701Y0149602D01*
X0250603Y0149474D01*
X0250502Y0149349D01*
X0250398Y0149227D01*
X0250291Y0149107D01*
X0250181Y0148990D01*
X0250068Y0148875D01*
X0249952Y0148764D01*
X0249833Y0148655D01*
X0249712Y0148550D01*
X0249588Y0148447D01*
X0249462Y0148347D01*
X0249334Y0148251D01*
X0249203Y0148158D01*
X0249069Y0148068D01*
X0248934Y0147981D01*
X0248796Y0147898D01*
X0248657Y0147818D01*
X0248515Y0147742D01*
X0248372Y0147669D01*
X0248227Y0147600D01*
X0248080Y0147534D01*
X0247932Y0147472D01*
X0247782Y0147414D01*
X0247631Y0147359D01*
X0247478Y0147308D01*
X0247324Y0147261D01*
X0247169Y0147218D01*
X0247013Y0147179D01*
X0246857Y0147143D01*
X0246699Y0147112D01*
X0246541Y0147084D01*
X0246382Y0147060D01*
X0246222Y0147040D01*
X0246062Y0147024D01*
X0245902Y0147012D01*
X0245741Y0147004D01*
X0245580Y0147000D01*
X0245420Y0147000D01*
X0245259Y0147004D01*
X0245098Y0147012D01*
X0244938Y0147024D01*
X0244778Y0147040D01*
X0244618Y0147060D01*
X0244459Y0147084D01*
X0244301Y0147112D01*
X0244143Y0147143D01*
X0243987Y0147179D01*
X0243831Y0147218D01*
X0243676Y0147261D01*
X0243522Y0147308D01*
X0243369Y0147359D01*
X0243218Y0147414D01*
X0243068Y0147472D01*
X0242920Y0147534D01*
X0242773Y0147600D01*
X0242628Y0147669D01*
X0242485Y0147742D01*
X0242343Y0147818D01*
X0242204Y0147898D01*
X0242066Y0147981D01*
X0241931Y0148068D01*
X0241797Y0148158D01*
X0241666Y0148251D01*
X0241538Y0148347D01*
X0241412Y0148447D01*
X0241288Y0148550D01*
X0241167Y0148655D01*
X0241048Y0148764D01*
X0240932Y0148875D01*
X0240819Y0148990D01*
X0240709Y0149107D01*
X0240602Y0149227D01*
X0240498Y0149349D01*
X0240397Y0149474D01*
X0240299Y0149602D01*
X0240204Y0149732D01*
X0240112Y0149864D01*
X0240024Y0149998D01*
X0239939Y0150135D01*
X0239857Y0150273D01*
X0239779Y0150414D01*
X0239705Y0150556D01*
X0239634Y0150700D01*
X0239566Y0150846D01*
X0239503Y0150994D01*
X0239442Y0151143D01*
X0239386Y0151294D01*
X0239333Y0151446D01*
X0239284Y0151599D01*
X0239239Y0151753D01*
X0239198Y0151908D01*
X0239160Y0152065D01*
X0239127Y0152222D01*
X0239097Y0152380D01*
X0239071Y0152539D01*
X0239050Y0152698D01*
X0239032Y0152858D01*
X0239018Y0153018D01*
X0239008Y0153179D01*
X0239002Y0153339D01*
X0239000Y0153500D01*
X0239000Y0175500D02*
X0239002Y0175661D01*
X0239008Y0175821D01*
X0239018Y0175982D01*
X0239032Y0176142D01*
X0239050Y0176302D01*
X0239071Y0176461D01*
X0239097Y0176620D01*
X0239127Y0176778D01*
X0239160Y0176935D01*
X0239198Y0177092D01*
X0239239Y0177247D01*
X0239284Y0177401D01*
X0239333Y0177554D01*
X0239386Y0177706D01*
X0239442Y0177857D01*
X0239503Y0178006D01*
X0239566Y0178154D01*
X0239634Y0178300D01*
X0239705Y0178444D01*
X0239779Y0178586D01*
X0239857Y0178727D01*
X0239939Y0178865D01*
X0240024Y0179002D01*
X0240112Y0179136D01*
X0240204Y0179268D01*
X0240299Y0179398D01*
X0240397Y0179526D01*
X0240498Y0179651D01*
X0240602Y0179773D01*
X0240709Y0179893D01*
X0240819Y0180010D01*
X0240932Y0180125D01*
X0241048Y0180236D01*
X0241167Y0180345D01*
X0241288Y0180450D01*
X0241412Y0180553D01*
X0241538Y0180653D01*
X0241666Y0180749D01*
X0241797Y0180842D01*
X0241931Y0180932D01*
X0242066Y0181019D01*
X0242204Y0181102D01*
X0242343Y0181182D01*
X0242485Y0181258D01*
X0242628Y0181331D01*
X0242773Y0181400D01*
X0242920Y0181466D01*
X0243068Y0181528D01*
X0243218Y0181586D01*
X0243369Y0181641D01*
X0243522Y0181692D01*
X0243676Y0181739D01*
X0243831Y0181782D01*
X0243987Y0181821D01*
X0244143Y0181857D01*
X0244301Y0181888D01*
X0244459Y0181916D01*
X0244618Y0181940D01*
X0244778Y0181960D01*
X0244938Y0181976D01*
X0245098Y0181988D01*
X0245259Y0181996D01*
X0245420Y0182000D01*
X0245580Y0182000D01*
X0245741Y0181996D01*
X0245902Y0181988D01*
X0246062Y0181976D01*
X0246222Y0181960D01*
X0246382Y0181940D01*
X0246541Y0181916D01*
X0246699Y0181888D01*
X0246857Y0181857D01*
X0247013Y0181821D01*
X0247169Y0181782D01*
X0247324Y0181739D01*
X0247478Y0181692D01*
X0247631Y0181641D01*
X0247782Y0181586D01*
X0247932Y0181528D01*
X0248080Y0181466D01*
X0248227Y0181400D01*
X0248372Y0181331D01*
X0248515Y0181258D01*
X0248657Y0181182D01*
X0248796Y0181102D01*
X0248934Y0181019D01*
X0249069Y0180932D01*
X0249203Y0180842D01*
X0249334Y0180749D01*
X0249462Y0180653D01*
X0249588Y0180553D01*
X0249712Y0180450D01*
X0249833Y0180345D01*
X0249952Y0180236D01*
X0250068Y0180125D01*
X0250181Y0180010D01*
X0250291Y0179893D01*
X0250398Y0179773D01*
X0250502Y0179651D01*
X0250603Y0179526D01*
X0250701Y0179398D01*
X0250796Y0179268D01*
X0250888Y0179136D01*
X0250976Y0179002D01*
X0251061Y0178865D01*
X0251143Y0178727D01*
X0251221Y0178586D01*
X0251295Y0178444D01*
X0251366Y0178300D01*
X0251434Y0178154D01*
X0251497Y0178006D01*
X0251558Y0177857D01*
X0251614Y0177706D01*
X0251667Y0177554D01*
X0251716Y0177401D01*
X0251761Y0177247D01*
X0251802Y0177092D01*
X0251840Y0176935D01*
X0251873Y0176778D01*
X0251903Y0176620D01*
X0251929Y0176461D01*
X0251950Y0176302D01*
X0251968Y0176142D01*
X0251982Y0175982D01*
X0251992Y0175821D01*
X0251998Y0175661D01*
X0252000Y0175500D01*
X0251998Y0175339D01*
X0251992Y0175179D01*
X0251982Y0175018D01*
X0251968Y0174858D01*
X0251950Y0174698D01*
X0251929Y0174539D01*
X0251903Y0174380D01*
X0251873Y0174222D01*
X0251840Y0174065D01*
X0251802Y0173908D01*
X0251761Y0173753D01*
X0251716Y0173599D01*
X0251667Y0173446D01*
X0251614Y0173294D01*
X0251558Y0173143D01*
X0251497Y0172994D01*
X0251434Y0172846D01*
X0251366Y0172700D01*
X0251295Y0172556D01*
X0251221Y0172414D01*
X0251143Y0172273D01*
X0251061Y0172135D01*
X0250976Y0171998D01*
X0250888Y0171864D01*
X0250796Y0171732D01*
X0250701Y0171602D01*
X0250603Y0171474D01*
X0250502Y0171349D01*
X0250398Y0171227D01*
X0250291Y0171107D01*
X0250181Y0170990D01*
X0250068Y0170875D01*
X0249952Y0170764D01*
X0249833Y0170655D01*
X0249712Y0170550D01*
X0249588Y0170447D01*
X0249462Y0170347D01*
X0249334Y0170251D01*
X0249203Y0170158D01*
X0249069Y0170068D01*
X0248934Y0169981D01*
X0248796Y0169898D01*
X0248657Y0169818D01*
X0248515Y0169742D01*
X0248372Y0169669D01*
X0248227Y0169600D01*
X0248080Y0169534D01*
X0247932Y0169472D01*
X0247782Y0169414D01*
X0247631Y0169359D01*
X0247478Y0169308D01*
X0247324Y0169261D01*
X0247169Y0169218D01*
X0247013Y0169179D01*
X0246857Y0169143D01*
X0246699Y0169112D01*
X0246541Y0169084D01*
X0246382Y0169060D01*
X0246222Y0169040D01*
X0246062Y0169024D01*
X0245902Y0169012D01*
X0245741Y0169004D01*
X0245580Y0169000D01*
X0245420Y0169000D01*
X0245259Y0169004D01*
X0245098Y0169012D01*
X0244938Y0169024D01*
X0244778Y0169040D01*
X0244618Y0169060D01*
X0244459Y0169084D01*
X0244301Y0169112D01*
X0244143Y0169143D01*
X0243987Y0169179D01*
X0243831Y0169218D01*
X0243676Y0169261D01*
X0243522Y0169308D01*
X0243369Y0169359D01*
X0243218Y0169414D01*
X0243068Y0169472D01*
X0242920Y0169534D01*
X0242773Y0169600D01*
X0242628Y0169669D01*
X0242485Y0169742D01*
X0242343Y0169818D01*
X0242204Y0169898D01*
X0242066Y0169981D01*
X0241931Y0170068D01*
X0241797Y0170158D01*
X0241666Y0170251D01*
X0241538Y0170347D01*
X0241412Y0170447D01*
X0241288Y0170550D01*
X0241167Y0170655D01*
X0241048Y0170764D01*
X0240932Y0170875D01*
X0240819Y0170990D01*
X0240709Y0171107D01*
X0240602Y0171227D01*
X0240498Y0171349D01*
X0240397Y0171474D01*
X0240299Y0171602D01*
X0240204Y0171732D01*
X0240112Y0171864D01*
X0240024Y0171998D01*
X0239939Y0172135D01*
X0239857Y0172273D01*
X0239779Y0172414D01*
X0239705Y0172556D01*
X0239634Y0172700D01*
X0239566Y0172846D01*
X0239503Y0172994D01*
X0239442Y0173143D01*
X0239386Y0173294D01*
X0239333Y0173446D01*
X0239284Y0173599D01*
X0239239Y0173753D01*
X0239198Y0173908D01*
X0239160Y0174065D01*
X0239127Y0174222D01*
X0239097Y0174380D01*
X0239071Y0174539D01*
X0239050Y0174698D01*
X0239032Y0174858D01*
X0239018Y0175018D01*
X0239008Y0175179D01*
X0239002Y0175339D01*
X0239000Y0175500D01*
X0239000Y0290500D02*
X0239002Y0290661D01*
X0239008Y0290821D01*
X0239018Y0290982D01*
X0239032Y0291142D01*
X0239050Y0291302D01*
X0239071Y0291461D01*
X0239097Y0291620D01*
X0239127Y0291778D01*
X0239160Y0291935D01*
X0239198Y0292092D01*
X0239239Y0292247D01*
X0239284Y0292401D01*
X0239333Y0292554D01*
X0239386Y0292706D01*
X0239442Y0292857D01*
X0239503Y0293006D01*
X0239566Y0293154D01*
X0239634Y0293300D01*
X0239705Y0293444D01*
X0239779Y0293586D01*
X0239857Y0293727D01*
X0239939Y0293865D01*
X0240024Y0294002D01*
X0240112Y0294136D01*
X0240204Y0294268D01*
X0240299Y0294398D01*
X0240397Y0294526D01*
X0240498Y0294651D01*
X0240602Y0294773D01*
X0240709Y0294893D01*
X0240819Y0295010D01*
X0240932Y0295125D01*
X0241048Y0295236D01*
X0241167Y0295345D01*
X0241288Y0295450D01*
X0241412Y0295553D01*
X0241538Y0295653D01*
X0241666Y0295749D01*
X0241797Y0295842D01*
X0241931Y0295932D01*
X0242066Y0296019D01*
X0242204Y0296102D01*
X0242343Y0296182D01*
X0242485Y0296258D01*
X0242628Y0296331D01*
X0242773Y0296400D01*
X0242920Y0296466D01*
X0243068Y0296528D01*
X0243218Y0296586D01*
X0243369Y0296641D01*
X0243522Y0296692D01*
X0243676Y0296739D01*
X0243831Y0296782D01*
X0243987Y0296821D01*
X0244143Y0296857D01*
X0244301Y0296888D01*
X0244459Y0296916D01*
X0244618Y0296940D01*
X0244778Y0296960D01*
X0244938Y0296976D01*
X0245098Y0296988D01*
X0245259Y0296996D01*
X0245420Y0297000D01*
X0245580Y0297000D01*
X0245741Y0296996D01*
X0245902Y0296988D01*
X0246062Y0296976D01*
X0246222Y0296960D01*
X0246382Y0296940D01*
X0246541Y0296916D01*
X0246699Y0296888D01*
X0246857Y0296857D01*
X0247013Y0296821D01*
X0247169Y0296782D01*
X0247324Y0296739D01*
X0247478Y0296692D01*
X0247631Y0296641D01*
X0247782Y0296586D01*
X0247932Y0296528D01*
X0248080Y0296466D01*
X0248227Y0296400D01*
X0248372Y0296331D01*
X0248515Y0296258D01*
X0248657Y0296182D01*
X0248796Y0296102D01*
X0248934Y0296019D01*
X0249069Y0295932D01*
X0249203Y0295842D01*
X0249334Y0295749D01*
X0249462Y0295653D01*
X0249588Y0295553D01*
X0249712Y0295450D01*
X0249833Y0295345D01*
X0249952Y0295236D01*
X0250068Y0295125D01*
X0250181Y0295010D01*
X0250291Y0294893D01*
X0250398Y0294773D01*
X0250502Y0294651D01*
X0250603Y0294526D01*
X0250701Y0294398D01*
X0250796Y0294268D01*
X0250888Y0294136D01*
X0250976Y0294002D01*
X0251061Y0293865D01*
X0251143Y0293727D01*
X0251221Y0293586D01*
X0251295Y0293444D01*
X0251366Y0293300D01*
X0251434Y0293154D01*
X0251497Y0293006D01*
X0251558Y0292857D01*
X0251614Y0292706D01*
X0251667Y0292554D01*
X0251716Y0292401D01*
X0251761Y0292247D01*
X0251802Y0292092D01*
X0251840Y0291935D01*
X0251873Y0291778D01*
X0251903Y0291620D01*
X0251929Y0291461D01*
X0251950Y0291302D01*
X0251968Y0291142D01*
X0251982Y0290982D01*
X0251992Y0290821D01*
X0251998Y0290661D01*
X0252000Y0290500D01*
X0251998Y0290339D01*
X0251992Y0290179D01*
X0251982Y0290018D01*
X0251968Y0289858D01*
X0251950Y0289698D01*
X0251929Y0289539D01*
X0251903Y0289380D01*
X0251873Y0289222D01*
X0251840Y0289065D01*
X0251802Y0288908D01*
X0251761Y0288753D01*
X0251716Y0288599D01*
X0251667Y0288446D01*
X0251614Y0288294D01*
X0251558Y0288143D01*
X0251497Y0287994D01*
X0251434Y0287846D01*
X0251366Y0287700D01*
X0251295Y0287556D01*
X0251221Y0287414D01*
X0251143Y0287273D01*
X0251061Y0287135D01*
X0250976Y0286998D01*
X0250888Y0286864D01*
X0250796Y0286732D01*
X0250701Y0286602D01*
X0250603Y0286474D01*
X0250502Y0286349D01*
X0250398Y0286227D01*
X0250291Y0286107D01*
X0250181Y0285990D01*
X0250068Y0285875D01*
X0249952Y0285764D01*
X0249833Y0285655D01*
X0249712Y0285550D01*
X0249588Y0285447D01*
X0249462Y0285347D01*
X0249334Y0285251D01*
X0249203Y0285158D01*
X0249069Y0285068D01*
X0248934Y0284981D01*
X0248796Y0284898D01*
X0248657Y0284818D01*
X0248515Y0284742D01*
X0248372Y0284669D01*
X0248227Y0284600D01*
X0248080Y0284534D01*
X0247932Y0284472D01*
X0247782Y0284414D01*
X0247631Y0284359D01*
X0247478Y0284308D01*
X0247324Y0284261D01*
X0247169Y0284218D01*
X0247013Y0284179D01*
X0246857Y0284143D01*
X0246699Y0284112D01*
X0246541Y0284084D01*
X0246382Y0284060D01*
X0246222Y0284040D01*
X0246062Y0284024D01*
X0245902Y0284012D01*
X0245741Y0284004D01*
X0245580Y0284000D01*
X0245420Y0284000D01*
X0245259Y0284004D01*
X0245098Y0284012D01*
X0244938Y0284024D01*
X0244778Y0284040D01*
X0244618Y0284060D01*
X0244459Y0284084D01*
X0244301Y0284112D01*
X0244143Y0284143D01*
X0243987Y0284179D01*
X0243831Y0284218D01*
X0243676Y0284261D01*
X0243522Y0284308D01*
X0243369Y0284359D01*
X0243218Y0284414D01*
X0243068Y0284472D01*
X0242920Y0284534D01*
X0242773Y0284600D01*
X0242628Y0284669D01*
X0242485Y0284742D01*
X0242343Y0284818D01*
X0242204Y0284898D01*
X0242066Y0284981D01*
X0241931Y0285068D01*
X0241797Y0285158D01*
X0241666Y0285251D01*
X0241538Y0285347D01*
X0241412Y0285447D01*
X0241288Y0285550D01*
X0241167Y0285655D01*
X0241048Y0285764D01*
X0240932Y0285875D01*
X0240819Y0285990D01*
X0240709Y0286107D01*
X0240602Y0286227D01*
X0240498Y0286349D01*
X0240397Y0286474D01*
X0240299Y0286602D01*
X0240204Y0286732D01*
X0240112Y0286864D01*
X0240024Y0286998D01*
X0239939Y0287135D01*
X0239857Y0287273D01*
X0239779Y0287414D01*
X0239705Y0287556D01*
X0239634Y0287700D01*
X0239566Y0287846D01*
X0239503Y0287994D01*
X0239442Y0288143D01*
X0239386Y0288294D01*
X0239333Y0288446D01*
X0239284Y0288599D01*
X0239239Y0288753D01*
X0239198Y0288908D01*
X0239160Y0289065D01*
X0239127Y0289222D01*
X0239097Y0289380D01*
X0239071Y0289539D01*
X0239050Y0289698D01*
X0239032Y0289858D01*
X0239018Y0290018D01*
X0239008Y0290179D01*
X0239002Y0290339D01*
X0239000Y0290500D01*
X0239000Y0312500D02*
X0239002Y0312661D01*
X0239008Y0312821D01*
X0239018Y0312982D01*
X0239032Y0313142D01*
X0239050Y0313302D01*
X0239071Y0313461D01*
X0239097Y0313620D01*
X0239127Y0313778D01*
X0239160Y0313935D01*
X0239198Y0314092D01*
X0239239Y0314247D01*
X0239284Y0314401D01*
X0239333Y0314554D01*
X0239386Y0314706D01*
X0239442Y0314857D01*
X0239503Y0315006D01*
X0239566Y0315154D01*
X0239634Y0315300D01*
X0239705Y0315444D01*
X0239779Y0315586D01*
X0239857Y0315727D01*
X0239939Y0315865D01*
X0240024Y0316002D01*
X0240112Y0316136D01*
X0240204Y0316268D01*
X0240299Y0316398D01*
X0240397Y0316526D01*
X0240498Y0316651D01*
X0240602Y0316773D01*
X0240709Y0316893D01*
X0240819Y0317010D01*
X0240932Y0317125D01*
X0241048Y0317236D01*
X0241167Y0317345D01*
X0241288Y0317450D01*
X0241412Y0317553D01*
X0241538Y0317653D01*
X0241666Y0317749D01*
X0241797Y0317842D01*
X0241931Y0317932D01*
X0242066Y0318019D01*
X0242204Y0318102D01*
X0242343Y0318182D01*
X0242485Y0318258D01*
X0242628Y0318331D01*
X0242773Y0318400D01*
X0242920Y0318466D01*
X0243068Y0318528D01*
X0243218Y0318586D01*
X0243369Y0318641D01*
X0243522Y0318692D01*
X0243676Y0318739D01*
X0243831Y0318782D01*
X0243987Y0318821D01*
X0244143Y0318857D01*
X0244301Y0318888D01*
X0244459Y0318916D01*
X0244618Y0318940D01*
X0244778Y0318960D01*
X0244938Y0318976D01*
X0245098Y0318988D01*
X0245259Y0318996D01*
X0245420Y0319000D01*
X0245580Y0319000D01*
X0245741Y0318996D01*
X0245902Y0318988D01*
X0246062Y0318976D01*
X0246222Y0318960D01*
X0246382Y0318940D01*
X0246541Y0318916D01*
X0246699Y0318888D01*
X0246857Y0318857D01*
X0247013Y0318821D01*
X0247169Y0318782D01*
X0247324Y0318739D01*
X0247478Y0318692D01*
X0247631Y0318641D01*
X0247782Y0318586D01*
X0247932Y0318528D01*
X0248080Y0318466D01*
X0248227Y0318400D01*
X0248372Y0318331D01*
X0248515Y0318258D01*
X0248657Y0318182D01*
X0248796Y0318102D01*
X0248934Y0318019D01*
X0249069Y0317932D01*
X0249203Y0317842D01*
X0249334Y0317749D01*
X0249462Y0317653D01*
X0249588Y0317553D01*
X0249712Y0317450D01*
X0249833Y0317345D01*
X0249952Y0317236D01*
X0250068Y0317125D01*
X0250181Y0317010D01*
X0250291Y0316893D01*
X0250398Y0316773D01*
X0250502Y0316651D01*
X0250603Y0316526D01*
X0250701Y0316398D01*
X0250796Y0316268D01*
X0250888Y0316136D01*
X0250976Y0316002D01*
X0251061Y0315865D01*
X0251143Y0315727D01*
X0251221Y0315586D01*
X0251295Y0315444D01*
X0251366Y0315300D01*
X0251434Y0315154D01*
X0251497Y0315006D01*
X0251558Y0314857D01*
X0251614Y0314706D01*
X0251667Y0314554D01*
X0251716Y0314401D01*
X0251761Y0314247D01*
X0251802Y0314092D01*
X0251840Y0313935D01*
X0251873Y0313778D01*
X0251903Y0313620D01*
X0251929Y0313461D01*
X0251950Y0313302D01*
X0251968Y0313142D01*
X0251982Y0312982D01*
X0251992Y0312821D01*
X0251998Y0312661D01*
X0252000Y0312500D01*
X0251998Y0312339D01*
X0251992Y0312179D01*
X0251982Y0312018D01*
X0251968Y0311858D01*
X0251950Y0311698D01*
X0251929Y0311539D01*
X0251903Y0311380D01*
X0251873Y0311222D01*
X0251840Y0311065D01*
X0251802Y0310908D01*
X0251761Y0310753D01*
X0251716Y0310599D01*
X0251667Y0310446D01*
X0251614Y0310294D01*
X0251558Y0310143D01*
X0251497Y0309994D01*
X0251434Y0309846D01*
X0251366Y0309700D01*
X0251295Y0309556D01*
X0251221Y0309414D01*
X0251143Y0309273D01*
X0251061Y0309135D01*
X0250976Y0308998D01*
X0250888Y0308864D01*
X0250796Y0308732D01*
X0250701Y0308602D01*
X0250603Y0308474D01*
X0250502Y0308349D01*
X0250398Y0308227D01*
X0250291Y0308107D01*
X0250181Y0307990D01*
X0250068Y0307875D01*
X0249952Y0307764D01*
X0249833Y0307655D01*
X0249712Y0307550D01*
X0249588Y0307447D01*
X0249462Y0307347D01*
X0249334Y0307251D01*
X0249203Y0307158D01*
X0249069Y0307068D01*
X0248934Y0306981D01*
X0248796Y0306898D01*
X0248657Y0306818D01*
X0248515Y0306742D01*
X0248372Y0306669D01*
X0248227Y0306600D01*
X0248080Y0306534D01*
X0247932Y0306472D01*
X0247782Y0306414D01*
X0247631Y0306359D01*
X0247478Y0306308D01*
X0247324Y0306261D01*
X0247169Y0306218D01*
X0247013Y0306179D01*
X0246857Y0306143D01*
X0246699Y0306112D01*
X0246541Y0306084D01*
X0246382Y0306060D01*
X0246222Y0306040D01*
X0246062Y0306024D01*
X0245902Y0306012D01*
X0245741Y0306004D01*
X0245580Y0306000D01*
X0245420Y0306000D01*
X0245259Y0306004D01*
X0245098Y0306012D01*
X0244938Y0306024D01*
X0244778Y0306040D01*
X0244618Y0306060D01*
X0244459Y0306084D01*
X0244301Y0306112D01*
X0244143Y0306143D01*
X0243987Y0306179D01*
X0243831Y0306218D01*
X0243676Y0306261D01*
X0243522Y0306308D01*
X0243369Y0306359D01*
X0243218Y0306414D01*
X0243068Y0306472D01*
X0242920Y0306534D01*
X0242773Y0306600D01*
X0242628Y0306669D01*
X0242485Y0306742D01*
X0242343Y0306818D01*
X0242204Y0306898D01*
X0242066Y0306981D01*
X0241931Y0307068D01*
X0241797Y0307158D01*
X0241666Y0307251D01*
X0241538Y0307347D01*
X0241412Y0307447D01*
X0241288Y0307550D01*
X0241167Y0307655D01*
X0241048Y0307764D01*
X0240932Y0307875D01*
X0240819Y0307990D01*
X0240709Y0308107D01*
X0240602Y0308227D01*
X0240498Y0308349D01*
X0240397Y0308474D01*
X0240299Y0308602D01*
X0240204Y0308732D01*
X0240112Y0308864D01*
X0240024Y0308998D01*
X0239939Y0309135D01*
X0239857Y0309273D01*
X0239779Y0309414D01*
X0239705Y0309556D01*
X0239634Y0309700D01*
X0239566Y0309846D01*
X0239503Y0309994D01*
X0239442Y0310143D01*
X0239386Y0310294D01*
X0239333Y0310446D01*
X0239284Y0310599D01*
X0239239Y0310753D01*
X0239198Y0310908D01*
X0239160Y0311065D01*
X0239127Y0311222D01*
X0239097Y0311380D01*
X0239071Y0311539D01*
X0239050Y0311698D01*
X0239032Y0311858D01*
X0239018Y0312018D01*
X0239008Y0312179D01*
X0239002Y0312339D01*
X0239000Y0312500D01*
X0239000Y0427500D02*
X0239002Y0427661D01*
X0239008Y0427821D01*
X0239018Y0427982D01*
X0239032Y0428142D01*
X0239050Y0428302D01*
X0239071Y0428461D01*
X0239097Y0428620D01*
X0239127Y0428778D01*
X0239160Y0428935D01*
X0239198Y0429092D01*
X0239239Y0429247D01*
X0239284Y0429401D01*
X0239333Y0429554D01*
X0239386Y0429706D01*
X0239442Y0429857D01*
X0239503Y0430006D01*
X0239566Y0430154D01*
X0239634Y0430300D01*
X0239705Y0430444D01*
X0239779Y0430586D01*
X0239857Y0430727D01*
X0239939Y0430865D01*
X0240024Y0431002D01*
X0240112Y0431136D01*
X0240204Y0431268D01*
X0240299Y0431398D01*
X0240397Y0431526D01*
X0240498Y0431651D01*
X0240602Y0431773D01*
X0240709Y0431893D01*
X0240819Y0432010D01*
X0240932Y0432125D01*
X0241048Y0432236D01*
X0241167Y0432345D01*
X0241288Y0432450D01*
X0241412Y0432553D01*
X0241538Y0432653D01*
X0241666Y0432749D01*
X0241797Y0432842D01*
X0241931Y0432932D01*
X0242066Y0433019D01*
X0242204Y0433102D01*
X0242343Y0433182D01*
X0242485Y0433258D01*
X0242628Y0433331D01*
X0242773Y0433400D01*
X0242920Y0433466D01*
X0243068Y0433528D01*
X0243218Y0433586D01*
X0243369Y0433641D01*
X0243522Y0433692D01*
X0243676Y0433739D01*
X0243831Y0433782D01*
X0243987Y0433821D01*
X0244143Y0433857D01*
X0244301Y0433888D01*
X0244459Y0433916D01*
X0244618Y0433940D01*
X0244778Y0433960D01*
X0244938Y0433976D01*
X0245098Y0433988D01*
X0245259Y0433996D01*
X0245420Y0434000D01*
X0245580Y0434000D01*
X0245741Y0433996D01*
X0245902Y0433988D01*
X0246062Y0433976D01*
X0246222Y0433960D01*
X0246382Y0433940D01*
X0246541Y0433916D01*
X0246699Y0433888D01*
X0246857Y0433857D01*
X0247013Y0433821D01*
X0247169Y0433782D01*
X0247324Y0433739D01*
X0247478Y0433692D01*
X0247631Y0433641D01*
X0247782Y0433586D01*
X0247932Y0433528D01*
X0248080Y0433466D01*
X0248227Y0433400D01*
X0248372Y0433331D01*
X0248515Y0433258D01*
X0248657Y0433182D01*
X0248796Y0433102D01*
X0248934Y0433019D01*
X0249069Y0432932D01*
X0249203Y0432842D01*
X0249334Y0432749D01*
X0249462Y0432653D01*
X0249588Y0432553D01*
X0249712Y0432450D01*
X0249833Y0432345D01*
X0249952Y0432236D01*
X0250068Y0432125D01*
X0250181Y0432010D01*
X0250291Y0431893D01*
X0250398Y0431773D01*
X0250502Y0431651D01*
X0250603Y0431526D01*
X0250701Y0431398D01*
X0250796Y0431268D01*
X0250888Y0431136D01*
X0250976Y0431002D01*
X0251061Y0430865D01*
X0251143Y0430727D01*
X0251221Y0430586D01*
X0251295Y0430444D01*
X0251366Y0430300D01*
X0251434Y0430154D01*
X0251497Y0430006D01*
X0251558Y0429857D01*
X0251614Y0429706D01*
X0251667Y0429554D01*
X0251716Y0429401D01*
X0251761Y0429247D01*
X0251802Y0429092D01*
X0251840Y0428935D01*
X0251873Y0428778D01*
X0251903Y0428620D01*
X0251929Y0428461D01*
X0251950Y0428302D01*
X0251968Y0428142D01*
X0251982Y0427982D01*
X0251992Y0427821D01*
X0251998Y0427661D01*
X0252000Y0427500D01*
X0251998Y0427339D01*
X0251992Y0427179D01*
X0251982Y0427018D01*
X0251968Y0426858D01*
X0251950Y0426698D01*
X0251929Y0426539D01*
X0251903Y0426380D01*
X0251873Y0426222D01*
X0251840Y0426065D01*
X0251802Y0425908D01*
X0251761Y0425753D01*
X0251716Y0425599D01*
X0251667Y0425446D01*
X0251614Y0425294D01*
X0251558Y0425143D01*
X0251497Y0424994D01*
X0251434Y0424846D01*
X0251366Y0424700D01*
X0251295Y0424556D01*
X0251221Y0424414D01*
X0251143Y0424273D01*
X0251061Y0424135D01*
X0250976Y0423998D01*
X0250888Y0423864D01*
X0250796Y0423732D01*
X0250701Y0423602D01*
X0250603Y0423474D01*
X0250502Y0423349D01*
X0250398Y0423227D01*
X0250291Y0423107D01*
X0250181Y0422990D01*
X0250068Y0422875D01*
X0249952Y0422764D01*
X0249833Y0422655D01*
X0249712Y0422550D01*
X0249588Y0422447D01*
X0249462Y0422347D01*
X0249334Y0422251D01*
X0249203Y0422158D01*
X0249069Y0422068D01*
X0248934Y0421981D01*
X0248796Y0421898D01*
X0248657Y0421818D01*
X0248515Y0421742D01*
X0248372Y0421669D01*
X0248227Y0421600D01*
X0248080Y0421534D01*
X0247932Y0421472D01*
X0247782Y0421414D01*
X0247631Y0421359D01*
X0247478Y0421308D01*
X0247324Y0421261D01*
X0247169Y0421218D01*
X0247013Y0421179D01*
X0246857Y0421143D01*
X0246699Y0421112D01*
X0246541Y0421084D01*
X0246382Y0421060D01*
X0246222Y0421040D01*
X0246062Y0421024D01*
X0245902Y0421012D01*
X0245741Y0421004D01*
X0245580Y0421000D01*
X0245420Y0421000D01*
X0245259Y0421004D01*
X0245098Y0421012D01*
X0244938Y0421024D01*
X0244778Y0421040D01*
X0244618Y0421060D01*
X0244459Y0421084D01*
X0244301Y0421112D01*
X0244143Y0421143D01*
X0243987Y0421179D01*
X0243831Y0421218D01*
X0243676Y0421261D01*
X0243522Y0421308D01*
X0243369Y0421359D01*
X0243218Y0421414D01*
X0243068Y0421472D01*
X0242920Y0421534D01*
X0242773Y0421600D01*
X0242628Y0421669D01*
X0242485Y0421742D01*
X0242343Y0421818D01*
X0242204Y0421898D01*
X0242066Y0421981D01*
X0241931Y0422068D01*
X0241797Y0422158D01*
X0241666Y0422251D01*
X0241538Y0422347D01*
X0241412Y0422447D01*
X0241288Y0422550D01*
X0241167Y0422655D01*
X0241048Y0422764D01*
X0240932Y0422875D01*
X0240819Y0422990D01*
X0240709Y0423107D01*
X0240602Y0423227D01*
X0240498Y0423349D01*
X0240397Y0423474D01*
X0240299Y0423602D01*
X0240204Y0423732D01*
X0240112Y0423864D01*
X0240024Y0423998D01*
X0239939Y0424135D01*
X0239857Y0424273D01*
X0239779Y0424414D01*
X0239705Y0424556D01*
X0239634Y0424700D01*
X0239566Y0424846D01*
X0239503Y0424994D01*
X0239442Y0425143D01*
X0239386Y0425294D01*
X0239333Y0425446D01*
X0239284Y0425599D01*
X0239239Y0425753D01*
X0239198Y0425908D01*
X0239160Y0426065D01*
X0239127Y0426222D01*
X0239097Y0426380D01*
X0239071Y0426539D01*
X0239050Y0426698D01*
X0239032Y0426858D01*
X0239018Y0427018D01*
X0239008Y0427179D01*
X0239002Y0427339D01*
X0239000Y0427500D01*
M02*
